<svg xmlns="http://www.w3.org/2000/svg" xmlns:xlink="http://www.w3.org/1999/xlink" xmlns:lucid="lucid" width="2244.18" height="1142"><g transform="translate(1322 2800)" lucid:page-tab-id="0_0"><path d="M-1500-3000h2500v1500h-2500z" fill="#f2f3f5"/><path d="M-564.5-2656v19.82m0 19.82v39.65m0 19.8v39.66m0 19.82v39.64m0 19.82v39.65m0 19.8v39.66m0 19.82v39.64m0 19.82v39.65m0 19.8v39.66m0 19.82v39.64m0 19.82v39.65m0 19.8v39.66m0 19.82v39.64m0 19.82v39.65m0 19.8v39.66m0 19.82v19.82" stroke="#1071e5" stroke-width="4" fill="none"/><path d="M-562.52-2655.95h-3.96v-2.05h3.96zM-562.52-1762h-3.96v-2.05h3.96z" stroke="#1071e5" stroke-width=".05" fill="#1071e5"/><path d="M179.08-2656v19.82m0 19.82v39.65m0 19.8v39.66m0 19.82v39.64m0 19.82v39.65m0 19.8v39.66m0 19.82v39.64m0 19.82v39.65m0 19.8v39.66m0 19.82v39.64m0 19.82v39.65m0 19.8v39.66m0 19.82v39.64m0 19.82v39.65m0 19.8v39.66m0 19.82v19.82" stroke="#1071e5" stroke-width="4" fill="none"/><path d="M181.06-2655.95h-3.95v-2.05h3.96zM181.06-1762h-3.95v-2.05h3.96z" stroke="#1071e5" stroke-width=".05" fill="#1071e5"/><path d="M824.8-2656v19.82m0 19.82v39.65m0 19.8v39.66m0 19.82v39.64m0 19.82v39.65m0 19.8v39.66m0 19.82v39.64m0 19.82v39.65m0 19.8v39.66m0 19.82v39.64m0 19.82v39.65m0 19.8v39.66m0 19.82v39.64m0 19.82v39.65m0 19.8v39.66m0 19.82v19.82" stroke="#1071e5" stroke-width="4" fill="none"/><path d="M826.77-2655.95h-3.95v-2.05h3.95zM826.77-1762h-3.95v-2.05h3.95z" stroke="#1071e5" stroke-width=".05" fill="#1071e5"/><path d="M-905-2656v19.82m0 19.82v39.65m0 19.8v39.66m0 19.82v39.64m0 19.82v39.65m0 19.8v39.66m0 19.82v39.64m0 19.82v39.65m0 19.8v39.66m0 19.82v39.64m0 19.82v39.65m0 19.8v39.66m0 19.82v39.64m0 19.82v39.65m0 19.8v39.66m0 19.82v19.82" stroke="#1071e5" stroke-width="4" fill="none"/><path d="M-903.03-2655.95h-3.95v-2.05h3.95zM-903.03-1762h-3.95v-2.05h3.95z" stroke="#1071e5" stroke-width=".05" fill="#1071e5"/><path d="M-218.06-2656v19.82m0 19.82v39.65m0 19.8v39.66m0 19.82v39.64m0 19.82v39.65m0 19.8v39.66m0 19.82v39.64m0 19.82v39.65m0 19.8v39.66m0 19.82v39.64m0 19.82v39.65m0 19.8v39.66m0 19.82v39.64m0 19.82v39.65m0 19.8v39.66m0 19.82v19.82" stroke="#1071e5" stroke-width="4" fill="none"/><path d="M-216.1-2655.95h-3.94v-2.05h3.95zM-216.1-1762h-3.94v-2.05h3.95z" stroke="#1071e5" stroke-width=".05" fill="#1071e5"/><path d="M-1320-2754a6 6 0 0 1 6-6h161.32a6 6 0 0 1 6 6v88a6 6 0 0 1-6 6H-1314a6 6 0 0 1-6-6z" stroke="#1071e5" stroke-width="4" fill="#cfe4ff"/><use xlink:href="#a" transform="matrix(1,0,0,1,-1320,-2760) translate(24.063105468750003 59.5625)"/><path d="M529-2656v19.82m0 19.82v39.65m0 19.8v39.66m0 19.82v39.64m0 19.82v39.65m0 19.8v39.66m0 19.82v39.64m0 19.82v39.65m0 19.8v39.66m0 19.82v39.64m0 19.82v39.65m0 19.8v39.66m0 19.82v39.64m0 19.82v39.65m0 19.8v39.66m0 19.82v19.82" stroke="#1071e5" stroke-width="4" fill="none"/><path d="M531-2655.95h-3.96v-2.05H531zM531-1762h-3.96v-2.05H531z" stroke="#1071e5" stroke-width=".05" fill="#1071e5"/><path d="M-1320-1754a6 6 0 0 1 6-6h161.32a6 6 0 0 1 6 6v88a6 6 0 0 1-6 6H-1314a6 6 0 0 1-6-6z" stroke="#1071e5" stroke-width="4" fill="#cfe4ff"/><use xlink:href="#a" transform="matrix(1,0,0,1,-1320,-1760) translate(24.063105468750003 59.5625)"/><path d="M-1026.68-2754a6 6 0 0 1 6-6h231.36a6 6 0 0 1 6 6v88a6 6 0 0 1-6 6h-231.36a6 6 0 0 1-6-6z" stroke="#1071e5" stroke-width="4" fill="#cfe4ff"/><use xlink:href="#b" transform="matrix(1,0,0,1,-1026.6810546875,-2760) translate(24.043085937500003 59.5625)"/><use xlink:href="#c" transform="matrix(1,0,0,1,-1026.6810546875,-2760) translate(116.17296875000001 59.5625)"/><path d="M-1233.34-2656v19.82m0 19.82v39.65m0 19.8v39.66m0 19.82v39.64m0 19.82v39.65m0 19.8v39.66m0 19.82v39.64m0 19.82v39.65m0 19.8v39.66m0 19.82v39.64m0 19.82v39.65m0 19.8v39.66m0 19.82v39.64m0 19.82v39.65m0 19.8v39.66m0 19.82v19.82" stroke="#1071e5" stroke-width="4" fill="none"/><path d="M-1231.37-2655.95h-3.95v-2.05h3.95zM-1231.37-1762h-3.95v-2.05h3.95z" stroke="#1071e5" stroke-width=".05" fill="#1071e5"/><path d="M-1026.68-1754a6 6 0 0 1 6-6h231.36a6 6 0 0 1 6 6v88a6 6 0 0 1-6 6h-231.36a6 6 0 0 1-6-6z" stroke="#1071e5" stroke-width="4" fill="#cfe4ff"/><use xlink:href="#b" transform="matrix(1,0,0,1,-1026.6810546875,-1760) translate(24.043085937500003 59.5625)"/><use xlink:href="#c" transform="matrix(1,0,0,1,-1026.6810546875,-1760) translate(116.17296875000001 59.5625)"/><path d="M-663.32-2754a6 6 0 0 1 6-6h185.64a6 6 0 0 1 6 6v88a6 6 0 0 1-6 6h-185.64a6 6 0 0 1-6-6z" stroke="#1071e5" stroke-width="4" fill="#cfe4ff"/><use xlink:href="#d" transform="matrix(1,0,0,1,-663.3220703125,-2760) translate(24.400996093750003 59.5625)"/><use xlink:href="#e" transform="matrix(1,0,0,1,-663.3220703125,-2760) translate(132.50158203125 59.5625)"/><path d="M-663.32-1754a6 6 0 0 1 6-6h185.64a6 6 0 0 1 6 6v88a6 6 0 0 1-6 6h-185.64a6 6 0 0 1-6-6z" stroke="#1071e5" stroke-width="4" fill="#cfe4ff"/><use xlink:href="#d" transform="matrix(1,0,0,1,-663.3220703125,-1760) translate(24.400996093750003 59.5625)"/><use xlink:href="#e" transform="matrix(1,0,0,1,-663.3220703125,-1760) translate(132.50158203125 59.5625)"/><path d="M-345.68-2754a6 6 0 0 1 6-6h243.23a6 6 0 0 1 6 6v88a6 6 0 0 1-6 6h-243.23a6 6 0 0 1-6-6z" stroke="#1071e5" stroke-width="4" fill="#cfe4ff"/><use xlink:href="#b" transform="matrix(1,0,0,1,-345.67890625000007,-2760) translate(24.108027343750003 59.5625)"/><use xlink:href="#f" transform="matrix(1,0,0,1,-345.67890625000007,-2760) translate(116.23791015625001 59.5625)"/><use xlink:href="#g" transform="matrix(1,0,0,1,-345.67890625000007,-2760) translate(189.37560546875 59.5625)"/><path d="M-345.68-1754a6 6 0 0 1 6-6h243.23a6 6 0 0 1 6 6v88a6 6 0 0 1-6 6h-243.23a6 6 0 0 1-6-6z" stroke="#1071e5" stroke-width="4" fill="#cfe4ff"/><use xlink:href="#b" transform="matrix(1,0,0,1,-345.67890625000007,-1760) translate(24.108027343750003 59.5625)"/><use xlink:href="#f" transform="matrix(1,0,0,1,-345.67890625000007,-1760) translate(116.23791015625001 59.5625)"/><use xlink:href="#g" transform="matrix(1,0,0,1,-345.67890625000007,-1760) translate(189.37560546875 59.5625)"/><path d="M29.55-2754a6 6 0 0 1 6-6h287.07a6 6 0 0 1 6 6v88a6 6 0 0 1-6 6H35.55a6 6 0 0 1-6-6z" stroke="#1071e5" stroke-width="4" fill="#cfe4ff"/><use xlink:href="#b" transform="matrix(1,0,0,1,29.55019531249991,-2760) translate(24.189570312500003 59.5625)"/><use xlink:href="#h" transform="matrix(1,0,0,1,29.55019531249991,-2760) translate(116.31945312500001 59.5625)"/><use xlink:href="#g" transform="matrix(1,0,0,1,29.55019531249991,-2760) translate(233.2940625 59.5625)"/><path d="M29.55-1754a6 6 0 0 1 6-6h287.07a6 6 0 0 1 6 6v88a6 6 0 0 1-6 6H35.55a6 6 0 0 1-6-6z" stroke="#1071e5" stroke-width="4" fill="#cfe4ff"/><use xlink:href="#b" transform="matrix(1,0,0,1,29.55019531249991,-1760) translate(24.189570312500003 59.5625)"/><use xlink:href="#h" transform="matrix(1,0,0,1,29.55019531249991,-1760) translate(116.31945312500001 59.5625)"/><use xlink:href="#g" transform="matrix(1,0,0,1,29.55019531249991,-1760) translate(233.2940625 59.5625)"/><path d="M448.62-2754a6 6 0 0 1 6-6H603.4a6 6 0 0 1 6 6v88a6 6 0 0 1-6 6H454.63a6 6 0 0 1-6-6z" stroke="#1071e5" stroke-width="4" fill="#cfe4ff"/><use xlink:href="#i" transform="matrix(1,0,0,1,448.6162109375,-2760) translate(24.328242187499995 59.5625)"/><path d="M448.62-1754a6 6 0 0 1 6-6H603.4a6 6 0 0 1 6 6v88a6 6 0 0 1-6 6H454.63a6 6 0 0 1-6-6z" stroke="#1071e5" stroke-width="4" fill="#cfe4ff"/><use xlink:href="#i" transform="matrix(1,0,0,1,448.6162109375,-1760) translate(24.328242187499995 59.5625)"/><path d="M729.4-2754a6 6 0 0 1 6-6h178.78a6 6 0 0 1 6 6v88a6 6 0 0 1-6 6H735.4a6 6 0 0 1-6-6z" stroke="#1071e5" stroke-width="4" fill="#cfe4ff"/><use xlink:href="#j" transform="matrix(1,0,0,1,729.4048828125001,-2760) translate(24.335078125000003 59.5625)"/><use xlink:href="#k" transform="matrix(1,0,0,1,729.4048828125001,-2760) translate(57.6221875 59.5625)"/><use xlink:href="#l" transform="matrix(1,0,0,1,729.4048828125001,-2760) translate(74.303828125 59.5625)"/><path d="M729.4-1754a6 6 0 0 1 6-6h178.78a6 6 0 0 1 6 6v88a6 6 0 0 1-6 6H735.4a6 6 0 0 1-6-6z" stroke="#1071e5" stroke-width="4" fill="#cfe4ff"/><use xlink:href="#j" transform="matrix(1,0,0,1,729.4048828125001,-1760) translate(24.335078125000003 59.5625)"/><use xlink:href="#k" transform="matrix(1,0,0,1,729.4048828125001,-1760) translate(57.6221875 59.5625)"/><use xlink:href="#l" transform="matrix(1,0,0,1,729.4048828125001,-1760) translate(74.303828125 59.5625)"/><path d="M-1231.34-2598.27h303.6M-1231.3-2598.27h-2.04" stroke="#1071e5" stroke-width="4" fill="none"/><path d="M-911.47-2598.27l-14.27 4.64v-9.27z" stroke="#1071e5" stroke-width="4" fill="#1071e5"/><use xlink:href="#m" transform="matrix(1,0,0,1,-1224.580290094439,-2632.060657640365) translate(0 20.143198694869486)"/><use xlink:href="#n" transform="matrix(1,0,0,1,-1224.580290094439,-2632.060657640365) translate(72.7246634331402 20.143198694869486)"/><use xlink:href="#o" transform="matrix(1,0,0,1,-1224.580290094439,-2632.060657640365) translate(132.10851885969848 20.143198694869486)"/><use xlink:href="#p" transform="matrix(1,0,0,1,-1224.580290094439,-2632.060657640365) translate(224.93576970001686 20.143198694869486)"/><path d="M-903-2538.53h315.76M-902.95-2538.53H-905" stroke="#1071e5" stroke-width="4" fill="none"/><path d="M-570.97-2538.53l-14.27 4.63v-9.27z" stroke="#1071e5" stroke-width="4" fill="#1071e5"/><use xlink:href="#q" transform="matrix(1,0,0,1,-937.6500951071669,-2572.327317640365) translate(0 20.143198694869486)"/><use xlink:href="#r" transform="matrix(1,0,0,1,-937.6500951071669,-2572.327317640365) translate(101.4673022966359 20.143198694869486)"/><use xlink:href="#s" transform="matrix(1,0,0,1,-937.6500951071669,-2572.327317640365) translate(255.92218220845524 20.143198694869486)"/><use xlink:href="#t" transform="matrix(1,0,0,1,-937.6500951071669,-2572.327317640365) translate(268.9177942696614 20.143198694869486)"/><path d="M-562.5-2478.8h321.7M-562.45-2478.8h-2.05" stroke="#1071e5" stroke-width="4" fill="none"/><path d="M-224.54-2478.8l-14.26 4.64v-9.28z" stroke="#1071e5" stroke-width="4" fill="#1071e5"/><use xlink:href="#u" transform="matrix(1,0,0,1,-639.640751750959,-2512.593977640365) translate(0 20.143198694869486)"/><use xlink:href="#v" transform="matrix(1,0,0,1,-639.640751750959,-2512.593977640365) translate(54.81508556129051 20.143198694869486)"/><use xlink:href="#w" transform="matrix(1,0,0,1,-639.640751750959,-2512.593977640365) translate(116.65592389317058 20.143198694869486)"/><use xlink:href="#x" transform="matrix(1,0,0,1,-639.640751750959,-2512.593977640365) translate(186.73070080445547 20.143198694869486)"/><path d="M-562.5-2419.07h321.7M-562.45-2419.07h-2.05" stroke="#1071e5" stroke-width="4" fill="none"/><path d="M-224.54-2419.07l-14.26 4.64v-9.27z" stroke="#1071e5" stroke-width="4" fill="#1071e5"/><use xlink:href="#u" transform="matrix(1,0,0,1,-542.4883987715189,-2452.860637640365) translate(0 20.143198694869486)"/><use xlink:href="#y" transform="matrix(1,0,0,1,-542.4883987715189,-2452.860637640365) translate(54.81508556129051 20.143198694869486)"/><use xlink:href="#z" transform="matrix(1,0,0,1,-542.4883987715189,-2452.860637640365) translate(73.85162666657291 20.143198694869486)"/><use xlink:href="#A" transform="matrix(1,0,0,1,-542.4883987715189,-2452.860637640365) translate(153.84571059645026 20.143198694869486)"/><use xlink:href="#B" transform="matrix(1,0,0,1,-542.4883987715189,-2452.860637640365) translate(213.0265095845522 20.143198694869486)"/><path d="M-562.5-2359.33h321.7M-562.45-2359.33h-2.05" stroke="#1071e5" stroke-width="4" fill="none"/><path d="M-224.54-2359.33l-14.26 4.63v-9.27z" stroke="#1071e5" stroke-width="4" fill="#1071e5"/><use xlink:href="#u" transform="matrix(1,0,0,1,-591.7600435629502,-2393.127297640365) translate(0 20.143198694869486)"/><use xlink:href="#C" transform="matrix(1,0,0,1,-591.7600435629502,-2393.127297640365) translate(54.81508556129051 20.143198694869486)"/><use xlink:href="#D" transform="matrix(1,0,0,1,-591.7600435629502,-2393.127297640365) translate(139.9972614937275 20.143198694869486)"/><path d="M-562.5-2299.6h321.7M-562.45-2299.6h-2.05" stroke="#1071e5" stroke-width="4" fill="none"/><path d="M-224.54-2299.6l-14.26 4.63v-9.27z" stroke="#1071e5" stroke-width="4" fill="#1071e5"/><use xlink:href="#E" transform="matrix(1,0,0,1,-641.3108909572597,-2333.3939576403654) translate(0 20.143198694869486)"/><use xlink:href="#F" transform="matrix(1,0,0,1,-641.3108909572597,-2333.3939576403654) translate(69.93263740436542 20.143198694869486)"/><use xlink:href="#G" transform="matrix(1,0,0,1,-641.3108909572597,-2333.3939576403654) translate(154.54625530912466 20.143198694869486)"/><use xlink:href="#H" transform="matrix(1,0,0,1,-641.3108909572597,-2333.3939576403654) translate(213.7270542972266 20.143198694869486)"/><use xlink:href="#I" transform="matrix(1,0,0,1,-641.3108909572597,-2333.3939576403654) translate(279.0706161924786 20.143198694869486)"/><use xlink:href="#J" transform="matrix(1,0,0,1,-641.3108909572597,-2333.3939576403654) translate(333.946618685306 20.143198694869486)"/><use xlink:href="#K" transform="matrix(1,0,0,1,-641.3108909572597,-2333.3939576403654) translate(428.65214158134563 20.143198694869486)"/><path d="M-562.5-2239.87h321.7M-562.45-2239.87h-2.05" stroke="#1071e5" stroke-width="4" fill="none"/><path d="M-224.54-2239.87l-14.26 4.64v-9.27z" stroke="#1071e5" stroke-width="4" fill="#1071e5"/><g><use xlink:href="#L" transform="matrix(1,0,0,1,-572.7691901563218,-2273.6606176403657) translate(0 20.143198694869486)"/><use xlink:href="#M" transform="matrix(1,0,0,1,-572.7691901563218,-2273.6606176403657) translate(40.53006511588659 20.143198694869486)"/><use xlink:href="#N" transform="matrix(1,0,0,1,-572.7691901563218,-2273.6606176403657) translate(91.65967631919443 20.143198694869486)"/><use xlink:href="#O" transform="matrix(1,0,0,1,-572.7691901563218,-2273.6606176403657) translate(168.51653827492123 20.143198694869486)"/><use xlink:href="#P" transform="matrix(1,0,0,1,-572.7691901563218,-2273.6606176403657) translate(244.92667606604408 20.143198694869486)"/><use xlink:href="#Q" transform="matrix(1,0,0,1,-572.7691901563218,-2273.6606176403657) translate(263.9632171713265 20.143198694869486)"/><use xlink:href="#R" transform="matrix(1,0,0,1,-572.7691901563218,-2273.6606176403657) translate(318.3011201022446 20.143198694869486)"/></g><path d="M-562.5-2180.13h321.7M-562.45-2180.13h-2.05" stroke="#1071e5" stroke-width="4" fill="none"/><path d="M-224.54-2180.13l-14.26 4.63v-9.27z" stroke="#1071e5" stroke-width="4" fill="#1071e5"/><g><use xlink:href="#m" transform="matrix(1,0,0,1,-539.6557614550518,-2209.2920227247414) translate(0 20.143198694869486)"/><use xlink:href="#S" transform="matrix(1,0,0,1,-539.6557614550518,-2209.2920227247414) translate(72.7246634331402 20.143198694869486)"/><use xlink:href="#T" transform="matrix(1,0,0,1,-539.6557614550518,-2209.2920227247414) translate(149.13480122426307 20.143198694869486)"/></g><path d="M-562.5-2120.4h321.7M-562.45-2120.4h-2.05" stroke="#1071e5" stroke-width="4" fill="none"/><path d="M-224.54-2120.4l-14.26 4.64v-9.27z" stroke="#1071e5" stroke-width="4" fill="#1071e5"/><g><use xlink:href="#U" transform="matrix(1,0,0,1,-625.6907744290054,-2154.193937640365) translate(0 20.143198694869486)"/><use xlink:href="#V" transform="matrix(1,0,0,1,-625.6907744290054,-2154.193937640365) translate(59.85088523500787 20.143198694869486)"/><use xlink:href="#W" transform="matrix(1,0,0,1,-625.6907744290054,-2154.193937640365) translate(124.99139069180356 20.143198694869486)"/><use xlink:href="#X" transform="matrix(1,0,0,1,-625.6907744290054,-2154.193937640365) translate(162.0187322443182 20.143198694869486)"/></g><path d="M-562.5-2060.67h321.7M-562.45-2060.67h-2.05" stroke="#1071e5" stroke-width="4" fill="none"/><path d="M-224.54-2060.67l-14.26 4.64v-9.27z" stroke="#1071e5" stroke-width="4" fill="#1071e5"/><g><use xlink:href="#m" transform="matrix(1,0,0,1,-561.3320362602667,-2094.4605976403654) translate(0 20.143198694869486)"/><use xlink:href="#Y" transform="matrix(1,0,0,1,-561.3320362602667,-2094.4605976403654) translate(72.7246634331402 20.143198694869486)"/><use xlink:href="#Z" transform="matrix(1,0,0,1,-561.3320362602667,-2094.4605976403654) translate(115.33605704320433 20.143198694869486)"/><use xlink:href="#aa" transform="matrix(1,0,0,1,-561.3320362602667,-2094.4605976403654) translate(203.74683034709722 20.143198694869486)"/></g><path d="M-562.5-2000.93h718.85M-562.45-2000.93h-2.05" stroke="#1071e5" stroke-width="4" fill="none"/><path d="M172.6-2000.93l-14.25 4.63v-9.27z" stroke="#1071e5" stroke-width="4" fill="#1071e5"/><g><use xlink:href="#ab" transform="matrix(1,0,0,1,-453.2605115833822,-2030.0920027247414) translate(0 20.143198694869486)"/><use xlink:href="#ac" transform="matrix(1,0,0,1,-453.2605115833822,-2030.0920027247414) translate(73.69933433773065 20.143198694869486)"/><use xlink:href="#ad" transform="matrix(1,0,0,1,-453.2605115833822,-2030.0920027247414) translate(202.22390705867465 20.143198694869486)"/></g><path d="M527-1941.2H-882.25M526.96-1941.2H529" stroke="#1071e5" stroke-width="4" fill="none"/><path d="M-898.53-1941.2l14.27-4.63v9.26z" stroke="#1071e5" stroke-width="4" fill="#1071e5"/><g><use xlink:href="#ae" transform="matrix(1,0,0,1,-247.29814066367567,-1970.3586627247414) translate(0 20.143198694869486)"/><use xlink:href="#af" transform="matrix(1,0,0,1,-247.29814066367567,-1970.3586627247414) translate(91.4769255245837 20.143198694869486)"/></g><path d="M822.8-1881.47H-882.27M822.74-1881.47h2.05" stroke="#1071e5" stroke-width="4" fill="none"/><path d="M-898.53-1881.47l14.27-4.63v9.27z" stroke="#1071e5" stroke-width="4" fill="#1071e5"/><g><use xlink:href="#ag" transform="matrix(1,0,0,1,-136.68838479551067,-1910.6253227247416) translate(0 20.143198694869486)"/><use xlink:href="#ah" transform="matrix(1,0,0,1,-136.68838479551067,-1910.6253227247416) translate(81.57792414983685 20.143198694869486)"/></g><path d="M-903-1841.64h118v39.82h-97.26M-902.95-1841.64H-905" stroke="#1071e5" stroke-width="4" fill="none"/><path d="M-898.53-1801.82l14.27-4.64v9.27z" stroke="#1071e5" stroke-width="4" fill="#1071e5"/><g><use xlink:href="#ai" transform="matrix(1,0,0,1,-777.0015625000001,-1834.312636362371) translate(0 20.143198694869486)"/><use xlink:href="#aj" transform="matrix(1,0,0,1,-777.0015625000001,-1834.312636362371) translate(128.12861266595414 20.143198694869486)"/><use xlink:href="#ak" transform="matrix(1,0,0,1,-777.0015625000001,-1834.312636362371) translate(209.54409166502592 20.143198694869486)"/></g><path d="M-440.1-2794a6 6 0 0 1 6-6H34.3a6 6 0 0 1 5.98 6v13.2a6 6 0 0 1-6 6h-468.4a6 6 0 0 1-6-6z" fill="none"/><g><use xlink:href="#al" transform="matrix(1,0,0,1,-440.1053710937499,-2800) translate(0.3046875 25.1875)"/><use xlink:href="#am" transform="matrix(1,0,0,1,-440.1053710937499,-2800) translate(112.912109375 25.1875)"/><use xlink:href="#an" transform="matrix(1,0,0,1,-440.1053710937499,-2800) translate(161.73828125 25.1875)"/><use xlink:href="#ao" transform="matrix(1,0,0,1,-440.1053710937499,-2800) translate(180.8955078125 25.1875)"/><use xlink:href="#ap" transform="matrix(1,0,0,1,-440.1053710937499,-2800) translate(314.6025390625 25.1875)"/><use xlink:href="#aq" transform="matrix(1,0,0,1,-440.1053710937499,-2800) translate(413.51171875 25.1875)"/></g><defs><path fill="#333" d="M180 0v-1490h510c348 0 508 194 508 460 0 198-88 351-276 417L1256 0h-220L726-579c-117 2-238 0-356 1V0H180zm190-747h312c235 0 327-108 327-283 0-177-92-293-329-293H370v576" id="ar"/><path fill="#333" d="M628 24c-324 0-524-230-524-574 0-343 198-582 503-582 237 0 487 146 487 559v75H286c9 234 145 362 343 362 132 0 231-58 273-172l174 48C1024-91 857 24 628 24zM287-650h624c-17-190-120-322-304-322-192 0-309 151-320 322" id="as"/><path fill="#333" d="M1096 418H916v-591h-14C865-111 790 24 577 24c-279 0-473-224-473-580 0-354 195-576 474-576 218 0 287 134 324 193h20v-179h174V418zM604-137c203 0 314-172 314-421 0-247-108-413-314-413-212 0-317 181-317 413 0 235 108 421 317 421" id="at"/><path fill="#333" d="M537 14c-226 0-379-139-379-422v-710h180v695c0 172 97 275 253 275 160 0 281-109 281-300v-670h181V0H879v-209C806-46 684 14 537 14" id="au"/><path fill="#333" d="M538 24C308 24 148-78 108-271l171-41c32 123 123 178 257 178 156 0 256-77 256-169 0-77-54-128-164-154l-186-44c-203-48-300-148-300-305 0-192 176-326 414-326 230 0 351 112 402 269l-163 42c-31-80-94-158-238-158-133 0-233 69-233 162 0 83 57 129 188 160l169 40c203 48 298 149 298 302 0 196-179 339-441 339" id="av"/><path fill="#333" d="M598-1118v154H368v674c0 100 37 144 132 144 23 0 62-6 92-12L629-6c-37 13-88 20-134 20-193 0-307-107-307-290v-688H20v-154h168v-266h180v266h230" id="aw"/><path fill="#333" d="M158 0v-1118h174v172h12c41-113 157-188 290-188 26 0 70 2 91 3v181c-11-2-60-10-108-10-161 0-279 109-279 260V0H158" id="ax"/><g id="a"><use transform="matrix(0.0126953125,0,0,0.0126953125,0,0)" xlink:href="#ar"/><use transform="matrix(0.0126953125,0,0,0.0126953125,16.3515625,0)" xlink:href="#as"/><use transform="matrix(0.0126953125,0,0,0.0126953125,31.509765625,0)" xlink:href="#at"/><use transform="matrix(0.0126953125,0,0,0.0126953125,47.4296875,0)" xlink:href="#au"/><use transform="matrix(0.0126953125,0,0,0.0126953125,62.8037109375,0)" xlink:href="#as"/><use transform="matrix(0.0126953125,0,0,0.0126953125,77.9619140625,0)" xlink:href="#av"/><use transform="matrix(0.0126953125,0,0,0.0126953125,91.685546875,0)" xlink:href="#aw"/><use transform="matrix(0.0126953125,0,0,0.0126953125,99.9375,0)" xlink:href="#as"/><use transform="matrix(0.0126953125,0,0,0.0126953125,115.095703125,0)" xlink:href="#ax"/></g><path fill="#333" d="M789 20c-398 0-667-293-667-764 0-473 273-766 655-766 315 0 558 198 612 487h-196c-61-191-204-311-415-311-262 0-471 207-471 590 0 380 208 588 482 588 249 0 420-165 425-427H828v-166h572v163c0 370-256 606-611 606" id="ay"/><path fill="#333" d="M158 0v-1118h180V0H158zm91-1301c-68 0-125-53-125-119s57-119 125-119c69 0 126 53 126 119s-57 119-126 119" id="az"/><path fill="#333" d="M180 0v-1490h190v644h782v-644h190V0h-190v-678H370V0H180" id="aA"/><path fill="#333" d="M677 24c-213 0-288-135-325-197h-20V0H158v-1490h180v551h14c37-59 106-193 324-193 279 0 474 222 474 576 0 356-194 580-473 580zm-27-161c209 0 317-186 317-421 0-232-105-413-317-413-206 0-314 166-314 413 0 249 111 421 314 421" id="aB"/><g id="b"><use transform="matrix(0.0126953125,0,0,0.0126953125,0,0)" xlink:href="#ay"/><use transform="matrix(0.0126953125,0,0,0.0126953125,19.3984375,0)" xlink:href="#az"/><use transform="matrix(0.0126953125,0,0,0.0126953125,25.6953125,0)" xlink:href="#aw"/><use transform="matrix(0.0126953125,0,0,0.0126953125,34.201171875,0)" xlink:href="#aA"/><use transform="matrix(0.0126953125,0,0,0.0126953125,53.5234375,0)" xlink:href="#au"/><use transform="matrix(0.0126953125,0,0,0.0126953125,68.8974609375,0)" xlink:href="#aB"/></g><path fill="#333" d="M180 0v-1490h510c348 0 508 209 508 474 0 266-160 477-507 477H370V0H180zm190-706h312c236 0 327-133 327-310 0-176-91-307-329-307H370v617" id="aC"/><path fill="#333" d="M338-1490V0H158v-1490h180" id="aD"/><path fill="#333" d="M471 26C259 26 90-98 90-318c0-256 228-303 435-329 202-27 287-16 287-108 0-139-79-219-234-219-161 0-248 86-283 164l-173-57c86-203 278-265 451-265 150 0 419 46 419 395V0H815v-152h-12C765-73 660 26 471 26zm31-159c199 0 310-134 310-271v-155c-30 35-226 55-295 64-131 17-246 59-246 186 0 116 97 176 231 176" id="aE"/><path fill="#333" d="M678-1118v154H420V0H240v-964H20v-154h220v-149c0-194 155-293 318-293 85 0 141 18 168 30l-50 154c-19-6-47-17-97-17-111 0-159 58-159 166v109h258" id="aF"/><path fill="#333" d="M613 24c-304 0-509-231-509-576 0-350 205-580 509-580 305 0 511 230 511 580 0 345-206 576-511 576zm0-161c226 0 329-195 329-415 0-222-103-419-329-419-223 0-326 196-326 419 0 220 103 415 326 415" id="aG"/><path fill="#333" d="M158 0v-1118h175l1 205c55-151 181-225 313-225 147 0 245 90 285 228 53-141 190-228 352-228 194 0 352 125 352 384V0h-181v-749c0-161-105-225-225-225-151 0-243 103-243 244V0H807v-767c0-124-93-207-219-207-131 0-250 92-250 270V0H158" id="aH"/><g id="c"><use transform="matrix(0.0126953125,0,0,0.0126953125,0,0)" xlink:href="#aC"/><use transform="matrix(0.0126953125,0,0,0.0126953125,16.60546875,0)" xlink:href="#aD"/><use transform="matrix(0.0126953125,0,0,0.0126953125,22.90234375,0)" xlink:href="#aE"/><use transform="matrix(0.0126953125,0,0,0.0126953125,37.501953125,0)" xlink:href="#aw"/><use transform="matrix(0.0126953125,0,0,0.0126953125,45.373046875,0)" xlink:href="#aF"/><use transform="matrix(0.0126953125,0,0,0.0126953125,54.234375,0)" xlink:href="#aG"/><use transform="matrix(0.0126953125,0,0,0.0126953125,69.82421875,0)" xlink:href="#ax"/><use transform="matrix(0.0126953125,0,0,0.0126953125,80.0185546875,0)" xlink:href="#aH"/></g><path fill="#333" d="M611 442c-248 0-391-105-460-228l146-94c47 65 117 165 314 165 178 0 307-82 307-266v-224h-17C863-141 792-18 576-18c-268 0-472-195-472-546 0-346 197-568 476-568 216 0 288 133 326 193h17v-179h175V29c0 289-215 413-487 413zm-5-620c203 0 314-146 314-390 0-237-108-403-314-403-213 0-319 180-319 403 0 230 109 390 319 390" id="aI"/><path fill="#333" d="M140 405l46-156c120 36 205 19 263-150l32-93L54-1118h197c107 313 237 620 324 950 87-331 219-637 326-950h196L606 167c-68 178-176 259-334 259-64 0-113-12-132-21" id="aJ"/><g id="d"><use transform="matrix(0.0126953125,0,0,0.0126953125,0,0)" xlink:href="#ar"/><use transform="matrix(0.0126953125,0,0,0.0126953125,16.3515625,0)" xlink:href="#as"/><use transform="matrix(0.0126953125,0,0,0.0126953125,31.509765625,0)" xlink:href="#aI"/><use transform="matrix(0.0126953125,0,0,0.0126953125,47.455078125,0)" xlink:href="#az"/><use transform="matrix(0.0126953125,0,0,0.0126953125,53.751953125,0)" xlink:href="#av"/><use transform="matrix(0.0126953125,0,0,0.0126953125,67.4755859375,0)" xlink:href="#aw"/><use transform="matrix(0.0126953125,0,0,0.0126953125,75.9814453125,0)" xlink:href="#ax"/><use transform="matrix(0.0126953125,0,0,0.0126953125,86.17578125,0)" xlink:href="#aJ"/></g><path fill="#333" d="M180 0v-1490h528c311 0 458 177 458 395 0 191-114 278-244 313v14c139 9 302 137 302 371 0 225-148 397-499 397H180zm190-168h350c232 0 321-102 321-231 0-149-120-277-311-277H370v508zm0-668h328c160 0 286-101 286-255 0-129-87-231-280-231H370v486" id="aK"/><g id="e"><use transform="matrix(0.0126953125,0,0,0.0126953125,0,0)" xlink:href="#aK"/><use transform="matrix(0.0126953125,0,0,0.0126953125,17.01171875,0)" xlink:href="#aG"/><use transform="matrix(0.0126953125,0,0,0.0126953125,32.6015625,0)" xlink:href="#aw"/></g><path fill="#333" d="M180 0v-1490h908v168H370v486h669v168H370v500h727V0H180" id="aL"/><path fill="#333" d="M657 26c-323 0-524-166-541-416h195c15 169 171 246 346 246 202 0 356-106 356-265 5-203-294-238-475-293-239-73-380-191-380-389 0-252 224-419 512-419 294 0 499 171 508 396H992c-17-145-151-228-328-228-193 0-321 102-321 242 0 156 175 211 284 241l149 41c160 44 422 134 422 412 0 244-197 432-541 432" id="aM"/><path fill="#333" d="M98-1322v-168h1126v168H757V0H567v-1322H98" id="aN"/><g id="f"><use transform="matrix(0.0126953125,0,0,0.0126953125,0,0)" xlink:href="#ar"/><use transform="matrix(0.0126953125,0,0,0.0126953125,16.732421875,0)" xlink:href="#aL"/><use transform="matrix(0.0126953125,0,0,0.0126953125,32.3603515625,0)" xlink:href="#aM"/><use transform="matrix(0.0126953125,0,0,0.0126953125,49.0419921875,0)" xlink:href="#aN"/></g><path fill="#333" d="M52 0l541-1490h220L1361 0h-200l-149-416H398L254 0H52zm404-582h497c-103-290-145-390-251-756-108 377-145 460-246 756" id="aO"/><path fill="#333" d="M370-1490V0H180v-1490h190" id="aP"/><g id="g"><use transform="matrix(0.0126953125,0,0,0.0126953125,0,0)" xlink:href="#aO"/><use transform="matrix(0.0126953125,0,0,0.0126953125,17.9384765625,0)" xlink:href="#aC"/><use transform="matrix(0.0126953125,0,0,0.0126953125,34.5439453125,0)" xlink:href="#aP"/></g><path fill="#333" d="M158 418v-1536h174v179h20c37-59 106-193 324-193 279 0 474 222 474 576 0 356-194 580-473 580-213 0-288-135-325-197h-14v591H158zm492-555c209 0 317-186 317-421 0-232-105-413-317-413-206 0-314 166-314 413 0 249 111 421 314 421" id="aQ"/><path fill="#333" d="M338-670V0H158v-1490h180v566c73-149 190-208 336-208 226 0 379 139 379 422V0H872v-695c0-172-96-275-252-275-161 0-282 109-282 300" id="aR"/><path fill="#333" d="M784 20c-382 0-662-292-662-764 0-473 280-766 662-766s660 293 660 766c0 282-99 499-260 629l192 255h-198L1049-33C969 2 880 20 784 20zm-62-486h198l156 205c112-98 183-261 183-483 0-383-209-590-475-590-268 0-477 208-477 590 0 380 209 588 477 588 54 0 106-9 154-25" id="aS"/><path fill="#333" d="M180 0v-1490h190v1322h690V0H180" id="aT"/><g id="h"><use transform="matrix(0.0126953125,0,0,0.0126953125,0,0)" xlink:href="#ay"/><use transform="matrix(0.0126953125,0,0,0.0126953125,19.3984375,0)" xlink:href="#ax"/><use transform="matrix(0.0126953125,0,0,0.0126953125,29.1865234375,0)" xlink:href="#aE"/><use transform="matrix(0.0126953125,0,0,0.0126953125,43.7861328125,0)" xlink:href="#aQ"/><use transform="matrix(0.0126953125,0,0,0.0126953125,59.7060546875,0)" xlink:href="#aR"/><use transform="matrix(0.0126953125,0,0,0.0126953125,75.080078125,0)" xlink:href="#aS"/><use transform="matrix(0.0126953125,0,0,0.0126953125,94.9609375,0)" xlink:href="#aT"/></g><path fill="#333" d="M481 0L54-1118h197c107 314 236 620 325 951 87-331 217-637 324-951h197L670 0H481" id="aU"/><path fill="#333" d="M409 0L70-1118h191c89 329 165 560 243 925 75-353 154-601 240-925h192c85 325 161 564 235 922 77-354 157-598 244-922h191L1267 0h-179c-86-307-176-590-250-913C763-588 675-308 588 0H409" id="aV"/><g id="i"><use transform="matrix(0.0126953125,0,0,0.0126953125,0,0)" xlink:href="#ar"/><use transform="matrix(0.0126953125,0,0,0.0126953125,16.3515625,0)" xlink:href="#as"/><use transform="matrix(0.0126953125,0,0,0.0126953125,31.001953125,0)" xlink:href="#aU"/><use transform="matrix(0.0126953125,0,0,0.0126953125,45.6142578125,0)" xlink:href="#az"/><use transform="matrix(0.0126953125,0,0,0.0126953125,51.9111328125,0)" xlink:href="#as"/><use transform="matrix(0.0126953125,0,0,0.0126953125,66.599609375,0)" xlink:href="#aV"/><use transform="matrix(0.0126953125,0,0,0.0126953125,87.4072265625,0)" xlink:href="#as"/><use transform="matrix(0.0126953125,0,0,0.0126953125,102.5654296875,0)" xlink:href="#ax"/></g><path fill="#333" d="M783 20c-382 0-661-292-661-764 0-473 279-766 661-766 302 0 548 182 601 489h-190c-42-204-217-313-411-313-268 0-476 208-476 590 0 381 209 588 476 588 195 0 369-110 411-313h190c-52 303-296 489-601 489" id="aW"/><g id="j"><use transform="matrix(0.0126953125,0,0,0.0126953125,0,0)" xlink:href="#aW"/><use transform="matrix(0.0126953125,0,0,0.0126953125,18.9921875,0)" xlink:href="#aP"/></g><path fill="#333" d="M692-1560L212 224H46l480-1784h166" id="aX"/><use transform="matrix(0.0126953125,0,0,0.0126953125,0,0)" xlink:href="#aX" id="k"/><path fill="#333" d="M613 24c-304 0-509-231-509-576 0-350 205-580 509-580 216 0 392 114 453 309l-173 49c-33-115-133-197-280-197-223 0-326 196-326 419 0 220 103 415 326 415 150 0 252-85 285-206l172 49C1010-95 832 24 613 24" id="aY"/><path fill="#333" d="M158 0v-1490h180v865h22l478-493h223L593-638 1096 0H865L456-523 338-412V0H158" id="aZ"/><g id="l"><use transform="matrix(0.0126953125,0,0,0.0126953125,0,0)" xlink:href="#aW"/><use transform="matrix(0.0126953125,0,0,0.0126953125,18.9921875,0)" xlink:href="#aR"/><use transform="matrix(0.0126953125,0,0,0.0126953125,34.3662109375,0)" xlink:href="#as"/><use transform="matrix(0.0126953125,0,0,0.0126953125,49.5244140625,0)" xlink:href="#aY"/><use transform="matrix(0.0126953125,0,0,0.0126953125,64.3779296875,0)" xlink:href="#aZ"/><use transform="matrix(0.0126953125,0,0,0.0126953125,78.6474609375,0)" xlink:href="#av"/></g><path fill="#333" d="M786 20C389 20 94-260 94-744c0-487 299-766 692-766 339 0 597 194 641 529h-309c-28-162-156-258-326-258-233 0-388 179-388 495 0 323 157 493 387 493 170 0 298-97 328-259h309c-34 277-266 530-642 530" id="ba"/><path fill="#333" d="M128 0v-1118h290v195h12c54-169 184-238 367-200v268c-27-8-86-15-130-15-138 0-239 95-239 234V0H128" id="bb"/><path fill="#333" d="M633 22C291 22 81-200 81-553c0-345 210-579 537-579 292 0 525 185 525 567v84H378c7 183 109 277 260 277 105 0 184-46 216-132l272 51C1071-99 893 22 633 22zM380-669h474c-15-146-94-237-233-237-143 0-229 99-241 237" id="bc"/><path fill="#333" d="M440 22C227 22 68-92 68-313c0-250 202-322 422-343 195-21 271-24 271-105 0-95-63-149-175-149-116 0-187 57-211 129l-275-46c57-194 237-305 487-305 240 0 474 108 474 379V0H777v-155h-10C713-51 605 22 440 22zm85-211c140 0 238-93 238-211v-121c-37 26-156 42-222 51-111 16-185 59-185 149 0 87 70 132 169 132" id="bd"/><path fill="#333" d="M683-1118v229H474v562c0 71 29 104 102 104 23 0 73-7 95-13l43 225C647 9 580 16 520 16 296 16 174-96 174-301v-588H20v-229h154v-266h300v266h209" id="be"/><g id="m"><use transform="matrix(0.010152821922817282,0,0,0.010152821922817282,0,0)" xlink:href="#ba"/><use transform="matrix(0.010152821922817282,0,0,0.010152821922817282,15.381525213068182,0)" xlink:href="#bb"/><use transform="matrix(0.010152821922817282,0,0,0.010152821922817282,23.34133760055693,0)" xlink:href="#bc"/><use transform="matrix(0.010152821922817282,0,0,0.010152821922817282,35.930836784850364,0)" xlink:href="#bd"/><use transform="matrix(0.010152821922817282,0,0,0.010152821922817282,48.00254205108011,0)" xlink:href="#be"/><use transform="matrix(0.010152821922817282,0,0,0.010152821922817282,55.41410205473674,0)" xlink:href="#bc"/></g><path fill="#333" d="M440-1490V0H135v-1490h305" id="bf"/><path fill="#333" d="M572 22C302 22 117-98 78-306l279-48c29 105 101 156 224 156 114 0 185-48 185-115 0-118-228-130-337-155-215-49-322-150-322-317 0-215 187-347 470-347 265 0 424 116 466 298l-266 47c-24-76-87-130-196-130-98 0-174 46-174 113 0 56 38 95 144 117l201 40c216 44 320 143 320 302 0 220-207 367-500 367" id="bg"/><path fill="#333" d="M513 14c-232 0-385-159-385-421v-711h300v659c0 139 76 222 202 222 127 0 217-86 217-234v-647h301V0H864l-4-232C797-74 683 14 513 14" id="bh"/><g id="n"><use transform="matrix(0.010152821922817282,0,0,0.010152821922817282,0,0)" xlink:href="#bf"/><use transform="matrix(0.010152821922817282,0,0,0.010152821922817282,5.837872605619937,0)" xlink:href="#bg"/><use transform="matrix(0.010152821922817282,0,0,0.010152821922817282,17.48315935109136,0)" xlink:href="#bg"/><use transform="matrix(0.010152821922817282,0,0,0.010152821922817282,29.128446096562783,0)" xlink:href="#bh"/><use transform="matrix(0.010152821922817282,0,0,0.010152821922817282,42.073294048154814,0)" xlink:href="#bc"/></g><path fill="#333" d="M169-607c0-330 107-732 258-974h279c-145 311-231 674-231 974 0 262 67 512 231 886H427C258-1 169-307 169-607" id="bi"/><path fill="#333" d="M625 442c-280 0-454-114-503-274l258-72c28 63 97 128 243 128 153 0 246-69 246-216v-206h-23C805-108 717-16 536-16 284-16 81-191 81-561c0-378 208-571 456-571 188 0 280 113 321 202h13v-188h295V-9c0 303-226 451-541 451zm5-686c153 0 240-119 240-319 0-198-86-329-240-329-158 0-241 137-241 329 0 195 85 319 241 319" id="bj"/><path fill="#333" d="M128 0v-1118h300V0H128zm150-1264c-91 0-165-68-165-154 0-85 74-154 165-154 90 0 165 69 165 154 0 86-75 154-165 154" id="bk"/><path fill="#333" d="M120 396l69-226c123 42 245 23 254-107l8-60L31-1118h319c87 288 199 559 259 872 72-308 185-583 277-872h315L726 132c-68 181-186 294-410 294-79 0-153-13-196-30" id="bl"/><g id="o"><use transform="matrix(0.010152821922817282,0,0,0.010152821922817282,0,0)" xlink:href="#bi"/><use transform="matrix(0.010152821922817282,0,0,0.010152821922817282,8.21363293555918,0)" xlink:href="#bb"/><use transform="matrix(0.010152821922817282,0,0,0.010152821922817282,16.17344532304793,0)" xlink:href="#bc"/><use transform="matrix(0.010152821922817282,0,0,0.010152821922817282,28.559888068885016,0)" xlink:href="#bj"/><use transform="matrix(0.010152821922817282,0,0,0.010152821922817282,41.697639637010575,0)" xlink:href="#bk"/><use transform="matrix(0.010152821922817282,0,0,0.010152821922817282,47.33245580417417,0)" xlink:href="#bg"/><use transform="matrix(0.010152821922817282,0,0,0.010152821922817282,58.97774254964559,0)" xlink:href="#be"/><use transform="matrix(0.010152821922817282,0,0,0.010152821922817282,66.59235899175854,0)" xlink:href="#bb"/><use transform="matrix(0.010152821922817282,0,0,0.010152821922817282,75.3847027769183,0)" xlink:href="#bl"/></g><path fill="#333" d="M1163 418H863v-597h-10C812-89 719 19 537 19 279 19 81-185 81-557c0-382 206-575 454-575 190 0 278 113 318 202h15v-188h295V418zM629-222c153 0 240-134 240-336 0-203-86-334-240-334-158 0-240 138-240 334 0 197 84 336 240 336" id="bm"/><path fill="#333" d="M67 279c166-379 230-627 230-886 0-300-86-663-230-974h278c151 241 258 644 258 974 0 302-90 608-258 886H67" id="bn"/><g id="p"><use transform="matrix(0.010152821922817282,0,0,0.010152821922817282,0,0)" xlink:href="#bb"/><use transform="matrix(0.010152821922817282,0,0,0.010152821922817282,7.95981238748875,0)" xlink:href="#bc"/><use transform="matrix(0.010152821922817282,0,0,0.010152821922817282,20.346255133325833,0)" xlink:href="#bm"/><use transform="matrix(0.010152821922817282,0,0,0.010152821922817282,33.453548235682945,0)" xlink:href="#bh"/><use transform="matrix(0.010152821922817282,0,0,0.010152821922817282,46.398396187274976,0)" xlink:href="#bc"/><use transform="matrix(0.010152821922817282,0,0,0.010152821922817282,58.78483893311207,0)" xlink:href="#bg"/><use transform="matrix(0.010152821922817282,0,0,0.010152821922817282,70.4301256785835,0)" xlink:href="#be"/><use transform="matrix(0.010152821922817282,0,0,0.010152821922817282,78.04474212069645,0)" xlink:href="#bn"/></g><path fill="#333" d="M449 0L49-1490h333c89 395 194 758 253 1185 65-426 176-790 269-1185h317c93 394 201 758 268 1181 60-425 164-788 253-1181h334L1675 0h-348c-90-376-204-711-266-1118C1004-714 886-373 798 0H449" id="bo"/><path fill="#333" d="M754 19C571 19 479-89 437-179h-14V0H128v-1490h300v560h9c41-89 129-202 319-202 248 0 453 193 453 575 0 372-197 576-455 576zm-92-241c156 0 240-139 240-336 0-196-83-334-240-334-154 0-241 131-241 334 0 202 88 336 241 336" id="bp"/><path fill="#333" d="M428-647V0H128v-1490h294v586c65-146 175-228 341-228 232 0 385 159 385 421V0H847v-659c0-139-76-222-202-222-128 0-217 86-217 234" id="bq"/><path fill="#333" d="M628 22C291 22 81-210 81-554c0-346 210-578 547-578 336 0 547 232 547 578 0 344-211 576-547 576zm0-236c160 0 242-146 242-341 0-197-82-341-242-341S387-753 387-555c0 195 81 341 241 341" id="br"/><path fill="#333" d="M128 0v-1490h300v802h17l366-430h347L740-633 1179 0H826L514-456l-86 97V0H128" id="bs"/><g id="q"><use transform="matrix(0.010152821922817282,0,0,0.010152821922817282,0,0)" xlink:href="#bo"/><use transform="matrix(0.010152821922817282,0,0,0.010152821922817282,20.53915874985936,0)" xlink:href="#bc"/><use transform="matrix(0.010152821922817282,0,0,0.010152821922817282,32.92560149569644,0)" xlink:href="#bp"/><use transform="matrix(0.010152821922817282,0,0,0.010152821922817282,46.03289459805356,0)" xlink:href="#bq"/><use transform="matrix(0.010152821922817282,0,0,0.010152821922817282,58.97774254964558,0)" xlink:href="#br"/><use transform="matrix(0.010152821922817282,0,0,0.010152821922817282,71.7296868847041,0)" xlink:href="#br"/><use transform="matrix(0.010152821922817282,0,0,0.010152821922817282,84.4816312197626,0)" xlink:href="#bs"/></g><path fill="#333" d="M342 19c-98 0-173-75-173-172s75-172 173-172 173 75 173 172S440 19 342 19" id="bt"/><path fill="#333" d="M128 418v-1536h295v188h14c41-89 129-202 319-202 248 0 453 193 453 575 0 372-197 576-455 576-183 0-275-108-317-198h-9v597H128zm534-640c156 0 240-139 240-336 0-196-83-334-240-334-154 0-241 131-241 334 0 202 88 336 241 336" id="bu"/><path fill="#333" d="M428-647V0H128v-1118h283l4 231c63-156 176-245 348-245 232 0 384 159 384 421V0H847v-659c0-139-76-222-202-222-128 0-217 86-217 234" id="bv"/><path fill="#333" d="M537 19C279 19 81-185 81-557c0-382 206-575 454-575 190 0 278 113 318 202h10v-560h300V0H868v-179h-15C812-89 719 19 537 19zm92-241c153 0 240-134 240-336 0-203-86-334-240-334-158 0-240 138-240 334 0 197 84 336 240 336" id="bw"/><g id="r"><use transform="matrix(0.010152821922817282,0,0,0.010152821922817282,0,0)" xlink:href="#bk"/><use transform="matrix(0.010152821922817282,0,0,0.010152821922817282,5.634816167163591,0)" xlink:href="#bg"/><use transform="matrix(0.010152821922817282,0,0,0.010152821922817282,17.280102912635012,0)" xlink:href="#bg"/><use transform="matrix(0.010152821922817282,0,0,0.010152821922817282,28.925389658106432,0)" xlink:href="#bh"/><use transform="matrix(0.010152821922817282,0,0,0.010152821922817282,41.870237609698464,0)" xlink:href="#bc"/><use transform="matrix(0.010152821922817282,0,0,0.010152821922817282,54.25668035553556,0)" xlink:href="#bg"/><use transform="matrix(0.010152821922817282,0,0,0.010152821922817282,65.90196710100697,0)" xlink:href="#bt"/><use transform="matrix(0.010152821922817282,0,0,0.010152821922817282,72.846497296214,0)" xlink:href="#br"/><use transform="matrix(0.010152821922817282,0,0,0.010152821922817282,85.59844163127251,0)" xlink:href="#bu"/><use transform="matrix(0.010152821922817282,0,0,0.010152821922817282,98.70573473362961,0)" xlink:href="#bc"/><use transform="matrix(0.010152821922817282,0,0,0.010152821922817282,111.0921774794667,0)" xlink:href="#bv"/><use transform="matrix(0.010152821922817282,0,0,0.010152821922817282,124.03702543105874,0)" xlink:href="#bc"/><use transform="matrix(0.010152821922817282,0,0,0.010152821922817282,136.42346817689582,0)" xlink:href="#bw"/></g><path fill="#333" d="M768-1560L288 224H28l480-1784h260" id="bx"/><use transform="matrix(0.010152821922817282,0,0,0.010152821922817282,0,0)" xlink:href="#bx" id="s"/><g id="t"><use transform="matrix(0.010152821922817282,0,0,0.010152821922817282,0,0)" xlink:href="#bk"/><use transform="matrix(0.010152821922817282,0,0,0.010152821922817282,5.634816167163591,0)" xlink:href="#bg"/><use transform="matrix(0.010152821922817282,0,0,0.010152821922817282,17.280102912635012,0)" xlink:href="#bg"/><use transform="matrix(0.010152821922817282,0,0,0.010152821922817282,28.925389658106432,0)" xlink:href="#bh"/><use transform="matrix(0.010152821922817282,0,0,0.010152821922817282,41.870237609698464,0)" xlink:href="#bc"/><use transform="matrix(0.010152821922817282,0,0,0.010152821922817282,54.25668035553556,0)" xlink:href="#bg"/><use transform="matrix(0.010152821922817282,0,0,0.010152821922817282,65.90196710100697,0)" xlink:href="#bt"/><use transform="matrix(0.010152821922817282,0,0,0.010152821922817282,72.846497296214,0)" xlink:href="#bc"/><use transform="matrix(0.010152821922817282,0,0,0.010152821922817282,85.23294004205108,0)" xlink:href="#bw"/><use transform="matrix(0.010152821922817282,0,0,0.010152821922817282,98.34023314440819,0)" xlink:href="#bk"/><use transform="matrix(0.010152821922817282,0,0,0.010152821922817282,103.97504931157178,0)" xlink:href="#be"/><use transform="matrix(0.010152821922817282,0,0,0.010152821922817282,111.3866093152284,0)" xlink:href="#bc"/><use transform="matrix(0.010152821922817282,0,0,0.010152821922817282,123.77305206106548,0)" xlink:href="#bw"/></g><path fill="#333" d="M135 0v-1490h305v1237h643V0H135" id="by"/><g id="u"><use transform="matrix(0.010152821922817282,0,0,0.010152821922817282,0,0)" xlink:href="#by"/><use transform="matrix(0.010152821922817282,0,0,0.010152821922817282,11.756967786622413,0)" xlink:href="#br"/><use transform="matrix(0.010152821922817282,0,0,0.010152821922817282,24.711968560137265,0)" xlink:href="#bd"/><use transform="matrix(0.010152821922817282,0,0,0.010152821922817282,36.783673826367014,0)" xlink:href="#bw"/></g><path fill="#333" d="M628 22C291 22 81-210 81-554c0-346 210-578 547-578 265 0 455 142 497 372l-279 52c-25-116-99-188-215-188-160 0-244 139-244 341 0 200 84 341 244 341 116 0 193-74 217-195l279 51C1085-123 896 22 628 22" id="bz"/><g id="v"><use transform="matrix(0.010152821922817282,0,0,0.010152821922817282,0,0)" xlink:href="#bg"/><use transform="matrix(0.010152821922817282,0,0,0.010152821922817282,11.645286745471422,0)" xlink:href="#be"/><use transform="matrix(0.010152821922817282,0,0,0.010152821922817282,19.361431406812557,0)" xlink:href="#bd"/><use transform="matrix(0.010152821922817282,0,0,0.010152821922817282,31.433136673042306,0)" xlink:href="#be"/><use transform="matrix(0.010152821922817282,0,0,0.010152821922817282,39.04775311515527,0)" xlink:href="#bk"/><use transform="matrix(0.010152821922817282,0,0,0.010152821922817282,44.68256928231886,0)" xlink:href="#bz"/></g><path fill="#333" d="M750-1118v229H516V0H217v-889H20v-229h197v-86c0-238 156-356 363-356 94 0 178 20 215 31l-54 226c-25-7-61-15-100-15-123-3-131 84-125 200h234" id="bA"/><g id="w"><use transform="matrix(0.010152821922817282,0,0,0.010152821922817282,0,0)" xlink:href="#bz"/><use transform="matrix(0.010152821922817282,0,0,0.010152821922817282,12.234150416994824,0)" xlink:href="#br"/><use transform="matrix(0.010152821922817282,0,0,0.010152821922817282,24.98609475205333,0)" xlink:href="#bv"/><use transform="matrix(0.010152821922817282,0,0,0.010152821922817282,37.93094270364537,0)" xlink:href="#bA"/><use transform="matrix(0.010152821922817282,0,0,0.010152821922817282,46.37809054342935,0)" xlink:href="#bk"/><use transform="matrix(0.010152821922817282,0,0,0.010152821922817282,52.012906710592944,0)" xlink:href="#bj"/></g><path fill="#333" d="M818-733v240H140v-240h678" id="bB"/><path fill="#333" d="M476-652l19-284-238 159-97-168 257-125-257-125 97-170 238 159-19-284h192l-18 284 238-159 95 170-255 125 255 125-95 168-238-159 18 284H476" id="bC"/><g id="x"><use transform="matrix(0.010152821922817282,0,0,0.010152821922817282,0,0)" xlink:href="#bi"/><use transform="matrix(0.010152821922817282,0,0,0.010152821922817282,7.837978524414941,0)" xlink:href="#bt"/><use transform="matrix(0.010152821922817282,0,0,0.010152821922817282,14.782508719621962,0)" xlink:href="#bj"/><use transform="matrix(0.010152821922817282,0,0,0.010152821922817282,27.920260287747524,0)" xlink:href="#bk"/><use transform="matrix(0.010152821922817282,0,0,0.010152821922817282,33.55507645491112,0)" xlink:href="#be"/><use transform="matrix(0.010152821922817282,0,0,0.010152821922817282,41.22045700663816,0)" xlink:href="#bq"/><use transform="matrix(0.010152821922817282,0,0,0.010152821922817282,54.16530495823019,0)" xlink:href="#bh"/><use transform="matrix(0.010152821922817282,0,0,0.010152821922817282,67.11015290982223,0)" xlink:href="#bp"/><use transform="matrix(0.010152821922817282,0,0,0.010152821922817282,80.21744601217935,0)" xlink:href="#bx"/><use transform="matrix(0.010152821922817282,0,0,0.010152821922817282,88.28893944081908,0)" xlink:href="#bb"/><use transform="matrix(0.010152821922817282,0,0,0.010152821922817282,96.24875182830785,0)" xlink:href="#bc"/><use transform="matrix(0.010152821922817282,0,0,0.010152821922817282,108.63519457414493,0)" xlink:href="#bj"/><use transform="matrix(0.010152821922817282,0,0,0.010152821922817282,121.7729461422705,0)" xlink:href="#bk"/><use transform="matrix(0.010152821922817282,0,0,0.010152821922817282,127.40776230943409,0)" xlink:href="#bg"/><use transform="matrix(0.010152821922817282,0,0,0.010152821922817282,139.0530490549055,0)" xlink:href="#be"/><use transform="matrix(0.010152821922817282,0,0,0.010152821922817282,146.66766549701845,0)" xlink:href="#bb"/><use transform="matrix(0.010152821922817282,0,0,0.010152821922817282,155.46000928217822,0)" xlink:href="#bl"/><use transform="matrix(0.010152821922817282,0,0,0.010152821922817282,167.15606013726378,0)" xlink:href="#bB"/><use transform="matrix(0.010152821922817282,0,0,0.010152821922817282,176.8824635393227,0)" xlink:href="#bp"/><use transform="matrix(0.010152821922817282,0,0,0.010152821922817282,189.98975664167983,0)" xlink:href="#br"/><use transform="matrix(0.010152821922817282,0,0,0.010152821922817282,202.74170097673834,0)" xlink:href="#be"/><use transform="matrix(0.010152821922817282,0,0,0.010152821922817282,210.3563174188513,0)" xlink:href="#bx"/><use transform="matrix(0.010152821922817282,0,0,0.010152821922817282,218.42781084749103,0)" xlink:href="#bz"/><use transform="matrix(0.010152821922817282,0,0,0.010152821922817282,230.66196126448585,0)" xlink:href="#br"/><use transform="matrix(0.010152821922817282,0,0,0.010152821922817282,243.41390559954436,0)" xlink:href="#bv"/><use transform="matrix(0.010152821922817282,0,0,0.010152821922817282,256.3587535511364,0)" xlink:href="#bA"/><use transform="matrix(0.010152821922817282,0,0,0.010152821922817282,264.8059013909203,0)" xlink:href="#bk"/><use transform="matrix(0.010152821922817282,0,0,0.010152821922817282,270.4407175580839,0)" xlink:href="#bj"/><use transform="matrix(0.010152821922817282,0,0,0.010152821922817282,283.5784691262095,0)" xlink:href="#bt"/><use transform="matrix(0.010152821922817282,0,0,0.010152821922817282,290.5229993214165,0)" xlink:href="#bC"/><use transform="matrix(0.010152821922817282,0,0,0.010152821922817282,302.14798042304227,0)" xlink:href="#bn"/></g><path fill="#333" d="M568-82v-393H183v-240h385v-393h254v393h386v240H822v393H568" id="bD"/><use transform="matrix(0.010152821922817282,0,0,0.010152821922817282,0,0)" xlink:href="#bD" id="y"/><path fill="#333" d="M428-1490V0H128v-1490h300" id="bE"/><path fill="#333" d="M443 0L31-1118h319c90 293 199 572 268 885 66-313 175-593 264-885h315L784 0H443" id="bF"/><g id="z"><use transform="matrix(0.010152821922817282,0,0,0.010152821922817282,0,0)" xlink:href="#bb"/><use transform="matrix(0.010152821922817282,0,0,0.010152821922817282,7.95981238748875,0)" xlink:href="#bc"/><use transform="matrix(0.010152821922817282,0,0,0.010152821922817282,20.346255133325833,0)" xlink:href="#bg"/><use transform="matrix(0.010152821922817282,0,0,0.010152821922817282,31.991541878797257,0)" xlink:href="#br"/><use transform="matrix(0.010152821922817282,0,0,0.010152821922817282,44.74348621385576,0)" xlink:href="#bE"/><use transform="matrix(0.010152821922817282,0,0,0.010152821922817282,50.59151164139852,0)" xlink:href="#bF"/><use transform="matrix(0.010152821922817282,0,0,0.010152821922817282,62.6835225514739,0)" xlink:href="#bc"/></g><g id="A"><use transform="matrix(0.010152821922817282,0,0,0.010152821922817282,0,0)" xlink:href="#bk"/><use transform="matrix(0.010152821922817282,0,0,0.010152821922817282,5.634816167163591,0)" xlink:href="#bg"/><use transform="matrix(0.010152821922817282,0,0,0.010152821922817282,17.280102912635012,0)" xlink:href="#bg"/><use transform="matrix(0.010152821922817282,0,0,0.010152821922817282,28.925389658106432,0)" xlink:href="#bh"/><use transform="matrix(0.010152821922817282,0,0,0.010152821922817282,41.870237609698464,0)" xlink:href="#bc"/></g><path fill="#333" d="M128 0v-1118h278l12 217c60-163 185-234 319-234 143 0 236 81 288 251 63-172 205-251 359-251 205 0 357 138 357 381V0h-301v-697c0-126-76-187-177-187-114 0-184 79-184 196V0H789v-705c0-109-72-179-174-179-106 0-187 74-187 208V0H128" id="bG"/><g id="B"><use transform="matrix(0.010152821922817282,0,0,0.010152821922817282,0,0)" xlink:href="#be"/><use transform="matrix(0.010152821922817282,0,0,0.010152821922817282,7.411560003656615,0)" xlink:href="#bc"/><use transform="matrix(0.010152821922817282,0,0,0.010152821922817282,19.798002749493698,0)" xlink:href="#bG"/><use transform="matrix(0.010152821922817282,0,0,0.010152821922817282,38.7736269232392,0)" xlink:href="#bu"/><use transform="matrix(0.010152821922817282,0,0,0.010152821922817282,51.88092002559631,0)" xlink:href="#bE"/><use transform="matrix(0.010152821922817282,0,0,0.010152821922817282,57.5157361927599,0)" xlink:href="#bd"/><use transform="matrix(0.010152821922817282,0,0,0.010152821922817282,69.58744145898964,0)" xlink:href="#be"/><use transform="matrix(0.010152821922817282,0,0,0.010152821922817282,76.99900146264626,0)" xlink:href="#bc"/></g><g id="C"><use transform="matrix(0.010152821922817282,0,0,0.010152821922817282,0,0)" xlink:href="#bg"/><use transform="matrix(0.010152821922817282,0,0,0.010152821922817282,11.645286745471422,0)" xlink:href="#bz"/><use transform="matrix(0.010152821922817282,0,0,0.010152821922817282,23.879437162466246,0)" xlink:href="#bq"/><use transform="matrix(0.010152821922817282,0,0,0.010152821922817282,36.824285114058284,0)" xlink:href="#bc"/><use transform="matrix(0.010152821922817282,0,0,0.010152821922817282,49.21072785989538,0)" xlink:href="#bG"/><use transform="matrix(0.010152821922817282,0,0,0.010152821922817282,68.18635203364087,0)" xlink:href="#bd"/></g><path fill="#333" d="M975 0v231H0V0h975" id="bH"/><g id="D"><use transform="matrix(0.010152821922817282,0,0,0.010152821922817282,0,0)" xlink:href="#bi"/><use transform="matrix(0.010152821922817282,0,0,0.010152821922817282,7.837978524414941,0)" xlink:href="#be"/><use transform="matrix(0.010152821922817282,0,0,0.010152821922817282,15.249538528071557,0)" xlink:href="#bc"/><use transform="matrix(0.010152821922817282,0,0,0.010152821922817282,27.63598127390864,0)" xlink:href="#bG"/><use transform="matrix(0.010152821922817282,0,0,0.010152821922817282,46.61160544765414,0)" xlink:href="#bu"/><use transform="matrix(0.010152821922817282,0,0,0.010152821922817282,59.718898550011254,0)" xlink:href="#bE"/><use transform="matrix(0.010152821922817282,0,0,0.010152821922817282,65.35371471717484,0)" xlink:href="#bd"/><use transform="matrix(0.010152821922817282,0,0,0.010152821922817282,77.4254199834046,0)" xlink:href="#be"/><use transform="matrix(0.010152821922817282,0,0,0.010152821922817282,84.83697998706121,0)" xlink:href="#bc"/><use transform="matrix(0.010152821922817282,0,0,0.010152821922817282,97.2234227328983,0)" xlink:href="#bt"/><use transform="matrix(0.010152821922817282,0,0,0.010152821922817282,104.16795292810531,0)" xlink:href="#bH"/><use transform="matrix(0.010152821922817282,0,0,0.010152821922817282,114.76749901552655,0)" xlink:href="#bG"/><use transform="matrix(0.010152821922817282,0,0,0.010152821922817282,133.74312318927207,0)" xlink:href="#bc"/><use transform="matrix(0.010152821922817282,0,0,0.010152821922817282,146.12956593510916,0)" xlink:href="#be"/><use transform="matrix(0.010152821922817282,0,0,0.010152821922817282,153.84571059645032,0)" xlink:href="#bd"/><use transform="matrix(0.010152821922817282,0,0,0.010152821922817282,165.91741586268006,0)" xlink:href="#bt"/><use transform="matrix(0.010152821922817282,0,0,0.010152821922817282,172.86194605788708,0)" xlink:href="#bg"/><use transform="matrix(0.010152821922817282,0,0,0.010152821922817282,184.5072328033585,0)" xlink:href="#bz"/><use transform="matrix(0.010152821922817282,0,0,0.010152821922817282,196.74138322035333,0)" xlink:href="#bq"/><use transform="matrix(0.010152821922817282,0,0,0.010152821922817282,209.68623117194537,0)" xlink:href="#bc"/><use transform="matrix(0.010152821922817282,0,0,0.010152821922817282,222.07267391778245,0)" xlink:href="#bG"/><use transform="matrix(0.010152821922817282,0,0,0.010152821922817282,241.04829809152795,0)" xlink:href="#bd"/><use transform="matrix(0.010152821922817282,0,0,0.010152821922817282,253.1200033577577,0)" xlink:href="#bn"/></g><g id="E"><use transform="matrix(0.010152821922817282,0,0,0.010152821922817282,0,0)" xlink:href="#ba"/><use transform="matrix(0.010152821922817282,0,0,0.010152821922817282,15.381525213068182,0)" xlink:href="#bq"/><use transform="matrix(0.010152821922817282,0,0,0.010152821922817282,28.326373164660218,0)" xlink:href="#bc"/><use transform="matrix(0.010152821922817282,0,0,0.010152821922817282,40.7128159104973,0)" xlink:href="#bz"/><use transform="matrix(0.010152821922817282,0,0,0.010152821922817282,52.94696632749211,0)" xlink:href="#bs"/></g><g id="F"><use transform="matrix(0.010152821922817282,0,0,0.010152821922817282,0,0)" xlink:href="#bb"/><use transform="matrix(0.010152821922817282,0,0,0.010152821922817282,7.95981238748875,0)" xlink:href="#bc"/><use transform="matrix(0.010152821922817282,0,0,0.010152821922817282,20.346255133325833,0)" xlink:href="#bj"/><use transform="matrix(0.010152821922817282,0,0,0.010152821922817282,33.48400670145139,0)" xlink:href="#bk"/><use transform="matrix(0.010152821922817282,0,0,0.010152821922817282,39.118822868614984,0)" xlink:href="#bg"/><use transform="matrix(0.010152821922817282,0,0,0.010152821922817282,50.76410961408641,0)" xlink:href="#be"/><use transform="matrix(0.010152821922817282,0,0,0.010152821922817282,58.37872605619937,0)" xlink:href="#bb"/><use transform="matrix(0.010152821922817282,0,0,0.010152821922817282,67.17106984135914,0)" xlink:href="#bl"/></g><g id="G"><use transform="matrix(0.010152821922817282,0,0,0.010152821922817282,0,0)" xlink:href="#bc"/><use transform="matrix(0.010152821922817282,0,0,0.010152821922817282,12.386442745837083,0)" xlink:href="#bv"/><use transform="matrix(0.010152821922817282,0,0,0.010152821922817282,25.331290697429118,0)" xlink:href="#be"/><use transform="matrix(0.010152821922817282,0,0,0.010152821922817282,32.94590713954208,0)" xlink:href="#bb"/><use transform="matrix(0.010152821922817282,0,0,0.010152821922817282,41.738250924701845,0)" xlink:href="#bl"/></g><path fill="#333" d="M42 0l360-574-338-544h324c72 124 151 261 209 394 58-134 140-271 215-394h318L785-570 1146 0H824c-79-136-169-280-234-425C528-278 439-134 360 0H42" id="bI"/><g id="H"><use transform="matrix(0.010152821922817282,0,0,0.010152821922817282,0,0)" xlink:href="#bc"/><use transform="matrix(0.010152821922817282,0,0,0.010152821922817282,11.970177047001576,0)" xlink:href="#bI"/><use transform="matrix(0.010152821922817282,0,0,0.010152821922817282,24.031729491308507,0)" xlink:href="#bk"/><use transform="matrix(0.010152821922817282,0,0,0.010152821922817282,29.6665456584721,0)" xlink:href="#bg"/><use transform="matrix(0.010152821922817282,0,0,0.010152821922817282,41.31183240394352,0)" xlink:href="#be"/><use transform="matrix(0.010152821922817282,0,0,0.010152821922817282,48.77415651721422,0)" xlink:href="#bg"/></g><path fill="#333" d="M795 20C377 20 94-272 94-743c0-483 302-767 694-767 335 0 593 206 635 500h-310c-42-142-154-229-320-229-230 0-389 177-389 493s154 495 393 495c212 0 340-120 345-311H818v-232h620v186c0 391-269 628-643 628" id="bJ"/><path fill="#333" d="M135 0v-1490h997v253H440v360h640v249H440v375h694V0H135" id="bK"/><path fill="#333" d="M75-1237v-253h1217v253H837V0H531v-1237H75" id="bL"/><g id="I"><use transform="matrix(0.010152821922817282,0,0,0.010152821922817282,0,0)" xlink:href="#bi"/><use transform="matrix(0.010152821922817282,0,0,0.010152821922817282,7.837978524414941,0)" xlink:href="#bJ"/><use transform="matrix(0.010152821922817282,0,0,0.010152821922817282,23.442865819785105,0)" xlink:href="#bK"/><use transform="matrix(0.010152821922817282,0,0,0.010152821922817282,36.072976291769805,0)" xlink:href="#bL"/></g><g id="J"><use transform="matrix(0.010152821922817282,0,0,0.010152821922817282,0,0)" xlink:href="#bz"/><use transform="matrix(0.010152821922817282,0,0,0.010152821922817282,12.234150416994824,0)" xlink:href="#br"/><use transform="matrix(0.010152821922817282,0,0,0.010152821922817282,24.98609475205333,0)" xlink:href="#bv"/><use transform="matrix(0.010152821922817282,0,0,0.010152821922817282,37.93094270364537,0)" xlink:href="#be"/><use transform="matrix(0.010152821922817282,0,0,0.010152821922817282,45.34250270730199,0)" xlink:href="#bc"/><use transform="matrix(0.010152821922817282,0,0,0.010152821922817282,57.728945453139076,0)" xlink:href="#bv"/><use transform="matrix(0.010152821922817282,0,0,0.010152821922817282,70.67379340473111,0)" xlink:href="#be"/><use transform="matrix(0.010152821922817282,0,0,0.010152821922817282,78.13611751800181,0)" xlink:href="#bg"/></g><g id="K"><use transform="matrix(0.010152821922817282,0,0,0.010152821922817282,0,0)" xlink:href="#bx"/><use transform="matrix(0.010152821922817282,0,0,0.010152821922817282,7.249114852891539,0)" xlink:href="#bt"/><use transform="matrix(0.010152821922817282,0,0,0.010152821922817282,14.19364504809856,0)" xlink:href="#bl"/><use transform="matrix(0.010152821922817282,0,0,0.010152821922817282,26.509018040475922,0)" xlink:href="#bd"/><use transform="matrix(0.010152821922817282,0,0,0.010152821922817282,38.58072330670567,0)" xlink:href="#bG"/><use transform="matrix(0.010152821922817282,0,0,0.010152821922817282,57.55634748045117,0)" xlink:href="#bE"/><use transform="matrix(0.010152821922817282,0,0,0.010152821922817282,63.566818058759004,0)" xlink:href="#bn"/></g><g id="L"><use transform="matrix(0.010152821922817282,0,0,0.010152821922817282,0,0)" xlink:href="#bJ"/><use transform="matrix(0.010152821922817282,0,0,0.010152821922817282,15.604887295370162,0)" xlink:href="#bc"/><use transform="matrix(0.010152821922817282,0,0,0.010152821922817282,27.991330041207245,0)" xlink:href="#be"/></g><g id="M"><use transform="matrix(0.010152821922817282,0,0,0.010152821922817282,0,0)" xlink:href="#bb"/><use transform="matrix(0.010152821922817282,0,0,0.010152821922817282,7.95981238748875,0)" xlink:href="#bc"/><use transform="matrix(0.010152821922817282,0,0,0.010152821922817282,20.346255133325833,0)" xlink:href="#bu"/><use transform="matrix(0.010152821922817282,0,0,0.010152821922817282,33.453548235682945,0)" xlink:href="#br"/></g><g id="N"><use transform="matrix(0.010152821922817282,0,0,0.010152821922817282,0,0)" xlink:href="#bw"/><use transform="matrix(0.010152821922817282,0,0,0.010152821922817282,13.107293102357112,0)" xlink:href="#bc"/><use transform="matrix(0.010152821922817282,0,0,0.010152821922817282,25.493735848194195,0)" xlink:href="#bA"/><use transform="matrix(0.010152821922817282,0,0,0.010152821922817282,33.36217283837759,0)" xlink:href="#bd"/><use transform="matrix(0.010152821922817282,0,0,0.010152821922817282,45.43387810460734,0)" xlink:href="#bh"/><use transform="matrix(0.010152821922817282,0,0,0.010152821922817282,58.37872605619937,0)" xlink:href="#bE"/><use transform="matrix(0.010152821922817282,0,0,0.010152821922817282,64.31812688104748,0)" xlink:href="#be"/></g><g id="O"><use transform="matrix(0.010152821922817282,0,0,0.010152821922817282,0,0)" xlink:href="#bp"/><use transform="matrix(0.010152821922817282,0,0,0.010152821922817282,13.107293102357112,0)" xlink:href="#bb"/><use transform="matrix(0.010152821922817282,0,0,0.010152821922817282,21.29046757214784,0)" xlink:href="#bd"/><use transform="matrix(0.010152821922817282,0,0,0.010152821922817282,33.36217283837759,0)" xlink:href="#bv"/><use transform="matrix(0.010152821922817282,0,0,0.010152821922817282,46.30702078996962,0)" xlink:href="#bz"/><use transform="matrix(0.010152821922817282,0,0,0.010152821922817282,58.54117120696445,0)" xlink:href="#bq"/></g><use transform="matrix(0.010152821922817282,0,0,0.010152821922817282,0,0)" xlink:href="#bD" id="P"/><g id="Q"><use transform="matrix(0.010152821922817282,0,0,0.010152821922817282,0,0)" xlink:href="#bp"/><use transform="matrix(0.010152821922817282,0,0,0.010152821922817282,13.310349540813457,0)" xlink:href="#bd"/><use transform="matrix(0.010152821922817282,0,0,0.010152821922817282,25.382054807043204,0)" xlink:href="#bg"/><use transform="matrix(0.010152821922817282,0,0,0.010152821922817282,37.02734155251463,0)" xlink:href="#bc"/></g><path fill="#333" d="M681 22C323 22 94-145 85-462h297c10 151 131 226 296 226 163 0 271-77 271-190 0-102-95-149-257-189l-164-41c-252-61-403-188-403-405 0-269 236-449 560-449 330 0 546 183 551 445H941c-11-119-106-188-259-188-156 0-244 72-244 172-3 156 226 185 373 221 250 61 445 186 445 436 0 271-213 446-575 446" id="bM"/><path fill="#333" d="M135 0v-1490h305v602h649v-602h306V0h-306v-635H440V0H135" id="bN"/><path fill="#333" d="M49 0l509-1490h400L1480 0h-339l-115-346H497L386 0H49zm524-585h374c-75-213-124-402-192-666-66 268-110 453-182 666" id="bO"/><g id="R"><use transform="matrix(0.010152821922817282,0,0,0.010152821922817282,0,0)" xlink:href="#bM"/><use transform="matrix(0.010152821922817282,0,0,0.010152821922817282,13.614934198497975,0)" xlink:href="#bN"/><use transform="matrix(0.010152821922817282,0,0,0.010152821922817282,29.148751740408418,0)" xlink:href="#bO"/></g><g id="S"><use transform="matrix(0.010152821922817282,0,0,0.010152821922817282,0,0)" xlink:href="#bp"/><use transform="matrix(0.010152821922817282,0,0,0.010152821922817282,13.107293102357112,0)" xlink:href="#bb"/><use transform="matrix(0.010152821922817282,0,0,0.010152821922817282,21.29046757214784,0)" xlink:href="#bd"/><use transform="matrix(0.010152821922817282,0,0,0.010152821922817282,33.36217283837759,0)" xlink:href="#bv"/><use transform="matrix(0.010152821922817282,0,0,0.010152821922817282,46.30702078996962,0)" xlink:href="#bz"/><use transform="matrix(0.010152821922817282,0,0,0.010152821922817282,58.54117120696445,0)" xlink:href="#bq"/></g><path fill="#333" d="M135 0v-1490h581c339 0 533 192 533 485 0 204-94 351-264 424L1302 0H964L680-532H440V0H135zm305-779h220c186 0 274-77 274-226 0-150-88-233-275-233H440v459" id="bP"/><g id="T"><use transform="matrix(0.010152821922817282,0,0,0.010152821922817282,0,0)" xlink:href="#bi"/><use transform="matrix(0.010152821922817282,0,0,0.010152821922817282,7.726297483263951,0)" xlink:href="#bj"/><use transform="matrix(0.010152821922817282,0,0,0.010152821922817282,20.864049051389514,0)" xlink:href="#bk"/><use transform="matrix(0.010152821922817282,0,0,0.010152821922817282,26.498865218553107,0)" xlink:href="#be"/><use transform="matrix(0.010152821922817282,0,0,0.010152821922817282,34.11348166066607,0)" xlink:href="#bt"/><use transform="matrix(0.010152821922817282,0,0,0.010152821922817282,41.05801185587309,0)" xlink:href="#bz"/><use transform="matrix(0.010152821922817282,0,0,0.010152821922817282,53.29216227286791,0)" xlink:href="#bb"/><use transform="matrix(0.010152821922817282,0,0,0.010152821922817282,61.251974660356666,0)" xlink:href="#bc"/><use transform="matrix(0.010152821922817282,0,0,0.010152821922817282,73.84147384465008,0)" xlink:href="#bd"/><use transform="matrix(0.010152821922817282,0,0,0.010152821922817282,85.91317911087984,0)" xlink:href="#be"/><use transform="matrix(0.010152821922817282,0,0,0.010152821922817282,93.32473911453646,0)" xlink:href="#bc"/><use transform="matrix(0.010152821922817282,0,0,0.010152821922817282,105.71118186037354,0)" xlink:href="#bP"/><use transform="matrix(0.010152821922817282,0,0,0.010152821922817282,119.11290679849235,0)" xlink:href="#bc"/><use transform="matrix(0.010152821922817282,0,0,0.010152821922817282,131.49934954432942,0)" xlink:href="#bA"/><use transform="matrix(0.010152821922817282,0,0,0.010152821922817282,139.7738994114255,0)" xlink:href="#bn"/></g><g id="U"><use transform="matrix(0.010152821922817282,0,0,0.010152821922817282,0,0)" xlink:href="#bo"/><use transform="matrix(0.010152821922817282,0,0,0.010152821922817282,20.87420187331233,0)" xlink:href="#bb"/><use transform="matrix(0.010152821922817282,0,0,0.010152821922817282,29.4939476857842,0)" xlink:href="#bk"/><use transform="matrix(0.010152821922817282,0,0,0.010152821922817282,35.12876385294779,0)" xlink:href="#be"/><use transform="matrix(0.010152821922817282,0,0,0.010152821922817282,42.54032385660441,0)" xlink:href="#bc"/></g><path fill="#333" d="M601 0v-560L49-1490h357l252 464c38 68 67 130 97 208 96-243 225-446 337-672h356L905-560V0H601" id="bQ"/><path fill="#333" d="M135 0v-1490h468l242 684c30 94 76 293 111 455 34-161 80-360 110-455l238-684h470V0h-307c0-447-3-765 11-1227-122 503-246 788-395 1227H826C676-435 552-717 427-1215c15 453 11 775 11 1215H135" id="bR"/><g id="V"><use transform="matrix(0.010152821922817282,0,0,0.010152821922817282,0,0)" xlink:href="#bQ"/><use transform="matrix(0.010152821922817282,0,0,0.010152821922817282,13.56417008888389,0)" xlink:href="#bO"/><use transform="matrix(0.010152821922817282,0,0,0.010152821922817282,29.087834808871513,0)" xlink:href="#bR"/><use transform="matrix(0.010152821922817282,0,0,0.010152821922817282,48.4594190376069,0)" xlink:href="#by"/></g><g id="W"><use transform="matrix(0.010152821922817282,0,0,0.010152821922817282,0,0)" xlink:href="#bA"/><use transform="matrix(0.010152821922817282,0,0,0.010152821922817282,8.447147839783979,0)" xlink:href="#bk"/><use transform="matrix(0.010152821922817282,0,0,0.010152821922817282,14.081964006947567,0)" xlink:href="#bE"/><use transform="matrix(0.010152821922817282,0,0,0.010152821922817282,19.71678017411116,0)" xlink:href="#bc"/></g><path fill="#333" d="M789 20C394 20 94-260 94-744c0-487 300-766 695-766s695 279 695 766c0 485-300 764-695 764zm0-271c231 0 385-174 385-493 0-321-154-495-385-495s-385 175-385 495c0 319 154 493 385 493" id="bS"/><path fill="#333" d="M750 21c-371 0-615-218-615-544v-967h305v942c0 174 123 299 310 299s309-125 309-299v-942h306v967c0 326-247 544-615 544" id="bT"/><path fill="#333" d="M135 0v-1490h980v253H440v416h609v249H440V0H135" id="bU"/><g id="X"><use transform="matrix(0.010152821922817282,0,0,0.010152821922817282,0,0)" xlink:href="#bi"/><use transform="matrix(0.010152821922817282,0,0,0.010152821922817282,7.726297483263951,0)" xlink:href="#bz"/><use transform="matrix(0.010152821922817282,0,0,0.010152821922817282,19.960447900258774,0)" xlink:href="#bb"/><use transform="matrix(0.010152821922817282,0,0,0.010152821922817282,27.920260287747524,0)" xlink:href="#bc"/><use transform="matrix(0.010152821922817282,0,0,0.010152821922817282,40.509759472040955,0)" xlink:href="#bd"/><use transform="matrix(0.010152821922817282,0,0,0.010152821922817282,52.581464738270704,0)" xlink:href="#be"/><use transform="matrix(0.010152821922817282,0,0,0.010152821922817282,59.99302474192732,0)" xlink:href="#bc"/><use transform="matrix(0.010152821922817282,0,0,0.010152821922817282,72.3794674877644,0)" xlink:href="#bS"/><use transform="matrix(0.010152821922817282,0,0,0.010152821922817282,88.40062048197008,0)" xlink:href="#bb"/><use transform="matrix(0.010152821922817282,0,0,0.010152821922817282,96.86807396559966,0)" xlink:href="#bT"/><use transform="matrix(0.010152821922817282,0,0,0.010152821922817282,112.08715402790277,0)" xlink:href="#bu"/><use transform="matrix(0.010152821922817282,0,0,0.010152821922817282,125.1944471302599,0)" xlink:href="#bw"/><use transform="matrix(0.010152821922817282,0,0,0.010152821922817282,138.30174023261702,0)" xlink:href="#bd"/><use transform="matrix(0.010152821922817282,0,0,0.010152821922817282,150.37344549884676,0)" xlink:href="#be"/><use transform="matrix(0.010152821922817282,0,0,0.010152821922817282,157.7850055025034,0)" xlink:href="#bc"/><use transform="matrix(0.010152821922817282,0,0,0.010152821922817282,170.17144824834045,0)" xlink:href="#bU"/><use transform="matrix(0.010152821922817282,0,0,0.010152821922817282,182.37514019956689,0)" xlink:href="#bk"/><use transform="matrix(0.010152821922817282,0,0,0.010152821922817282,188.00995636673048,0)" xlink:href="#bE"/><use transform="matrix(0.010152821922817282,0,0,0.010152821922817282,193.64477253389407,0)" xlink:href="#bc"/><use transform="matrix(0.010152821922817282,0,0,0.010152821922817282,206.03121527973113,0)" xlink:href="#ba"/><use transform="matrix(0.010152821922817282,0,0,0.010152821922817282,221.41274049279932,0)" xlink:href="#br"/><use transform="matrix(0.010152821922817282,0,0,0.010152821922817282,234.16468482785783,0)" xlink:href="#bv"/><use transform="matrix(0.010152821922817282,0,0,0.010152821922817282,247.10953277944986,0)" xlink:href="#be"/><use transform="matrix(0.010152821922817282,0,0,0.010152821922817282,254.52109278310647,0)" xlink:href="#bc"/><use transform="matrix(0.010152821922817282,0,0,0.010152821922817282,266.9075355289436,0)" xlink:href="#bv"/><use transform="matrix(0.010152821922817282,0,0,0.010152821922817282,279.8523834805356,0)" xlink:href="#be"/><use transform="matrix(0.010152821922817282,0,0,0.010152821922817282,287.3147075938063,0)" xlink:href="#bg"/><use transform="matrix(0.010152821922817282,0,0,0.010152821922817282,298.9599943392777,0)" xlink:href="#bn"/></g><path fill="#333" d="M135 0v-1490h581c339 0 533 210 533 503 0 295-197 500-540 500H440V0H135zm305-733h220c186 0 274-104 274-254s-88-251-275-251H440v505" id="bV"/><g id="Y"><use transform="matrix(0.010152821922817282,0,0,0.010152821922817282,0,0)" xlink:href="#bV"/><use transform="matrix(0.010152821922817282,0,0,0.010152821922817282,13.472794691578533,0)" xlink:href="#bh"/><use transform="matrix(0.010152821922817282,0,0,0.010152821922817282,26.417642643170566,0)" xlink:href="#bE"/><use transform="matrix(0.010152821922817282,0,0,0.010152821922817282,32.05245881033416,0)" xlink:href="#bE"/></g><g id="Z"><use transform="matrix(0.010152821922817282,0,0,0.010152821922817282,0,0)" xlink:href="#bP"/><use transform="matrix(0.010152821922817282,0,0,0.010152821922817282,13.40172493811881,0)" xlink:href="#bc"/><use transform="matrix(0.010152821922817282,0,0,0.010152821922817282,25.788167683955898,0)" xlink:href="#bm"/><use transform="matrix(0.010152821922817282,0,0,0.010152821922817282,38.89546078631301,0)" xlink:href="#bh"/><use transform="matrix(0.010152821922817282,0,0,0.010152821922817282,51.840308737905055,0)" xlink:href="#bc"/><use transform="matrix(0.010152821922817282,0,0,0.010152821922817282,64.22675148374213,0)" xlink:href="#bg"/><use transform="matrix(0.010152821922817282,0,0,0.010152821922817282,75.87203822921356,0)" xlink:href="#be"/></g><g id="aa"><use transform="matrix(0.010152821922817282,0,0,0.010152821922817282,0,0)" xlink:href="#bi"/><use transform="matrix(0.010152821922817282,0,0,0.010152821922817282,8.21363293555918,0)" xlink:href="#bu"/><use transform="matrix(0.010152821922817282,0,0,0.010152821922817282,21.32092603791629,0)" xlink:href="#bh"/><use transform="matrix(0.010152821922817282,0,0,0.010152821922817282,34.26577398950833,0)" xlink:href="#bE"/><use transform="matrix(0.010152821922817282,0,0,0.010152821922817282,39.900590156671925,0)" xlink:href="#bE"/><use transform="matrix(0.010152821922817282,0,0,0.010152821922817282,45.53540632383552,0)" xlink:href="#bg"/><use transform="matrix(0.010152821922817282,0,0,0.010152821922817282,57.18069306930694,0)" xlink:href="#bt"/><use transform="matrix(0.010152821922817282,0,0,0.010152821922817282,64.12522326451396,0)" xlink:href="#bz"/><use transform="matrix(0.010152821922817282,0,0,0.010152821922817282,76.35937368150879,0)" xlink:href="#bb"/><use transform="matrix(0.010152821922817282,0,0,0.010152821922817282,84.31918606899755,0)" xlink:href="#bc"/><use transform="matrix(0.010152821922817282,0,0,0.010152821922817282,96.90868525329097,0)" xlink:href="#bd"/><use transform="matrix(0.010152821922817282,0,0,0.010152821922817282,108.98039051952071,0)" xlink:href="#be"/><use transform="matrix(0.010152821922817282,0,0,0.010152821922817282,116.39195052317731,0)" xlink:href="#bc"/><use transform="matrix(0.010152821922817282,0,0,0.010152821922817282,128.51441989902116,0)" xlink:href="#bn"/></g><g id="ab"><use transform="matrix(0.010152821922817282,0,0,0.010152821922817282,0,0)" xlink:href="#bK"/><use transform="matrix(0.010152821922817282,0,0,0.010152821922817282,12.630110471984699,0)" xlink:href="#bv"/><use transform="matrix(0.010152821922817282,0,0,0.010152821922817282,25.574958423576735,0)" xlink:href="#bd"/><use transform="matrix(0.010152821922817282,0,0,0.010152821922817282,37.64666368980648,0)" xlink:href="#bp"/><use transform="matrix(0.010152821922817282,0,0,0.010152821922817282,50.75395679216359,0)" xlink:href="#bE"/><use transform="matrix(0.010152821922817282,0,0,0.010152821922817282,56.388772959327184,0)" xlink:href="#bc"/></g><g id="ac"><use transform="matrix(0.010152821922817282,0,0,0.010152821922817282,0,0)" xlink:href="#bO"/><use transform="matrix(0.010152821922817282,0,0,0.010152821922817282,15.523664719987623,0)" xlink:href="#bh"/><use transform="matrix(0.010152821922817282,0,0,0.010152821922817282,28.46851267157966,0)" xlink:href="#be"/><use transform="matrix(0.010152821922817282,0,0,0.010152821922817282,35.88007267523628,0)" xlink:href="#br"/><use transform="matrix(0.010152821922817282,0,0,0.010152821922817282,48.63201701029479,0)" xlink:href="#bB"/><use transform="matrix(0.010152821922817282,0,0,0.010152821922817282,58.358420412353745,0)" xlink:href="#bR"/><use transform="matrix(0.010152821922817282,0,0,0.010152821922817282,77.73000464108912,0)" xlink:href="#bc"/><use transform="matrix(0.010152821922817282,0,0,0.010152821922817282,90.11644738692621,0)" xlink:href="#bb"/><use transform="matrix(0.010152821922817282,0,0,0.010152821922817282,98.07625977441496,0)" xlink:href="#bj"/><use transform="matrix(0.010152821922817282,0,0,0.010152821922817282,111.21401134254053,0)" xlink:href="#bc"/></g><g id="ad"><use transform="matrix(0.010152821922817282,0,0,0.010152821922817282,0,0)" xlink:href="#bi"/><use transform="matrix(0.010152821922817282,0,0,0.010152821922817282,7.726297483263951,0)" xlink:href="#bc"/><use transform="matrix(0.010152821922817282,0,0,0.010152821922817282,20.112740229101036,0)" xlink:href="#bv"/><use transform="matrix(0.010152821922817282,0,0,0.010152821922817282,33.057588180693074,0)" xlink:href="#bd"/><use transform="matrix(0.010152821922817282,0,0,0.010152821922817282,45.129293446922816,0)" xlink:href="#bp"/><use transform="matrix(0.010152821922817282,0,0,0.010152821922817282,58.23658654927994,0)" xlink:href="#bE"/><use transform="matrix(0.010152821922817282,0,0,0.010152821922817282,63.871402716443534,0)" xlink:href="#bc"/><use transform="matrix(0.010152821922817282,0,0,0.010152821922817282,76.25784546228061,0)" xlink:href="#bV"/><use transform="matrix(0.010152821922817282,0,0,0.010152821922817282,89.73064015385914,0)" xlink:href="#bh"/><use transform="matrix(0.010152821922817282,0,0,0.010152821922817282,102.67548810545118,0)" xlink:href="#bE"/><use transform="matrix(0.010152821922817282,0,0,0.010152821922817282,108.31030427261476,0)" xlink:href="#bE"/><use transform="matrix(0.010152821922817282,0,0,0.010152821922817282,113.94512043977835,0)" xlink:href="#bP"/><use transform="matrix(0.010152821922817282,0,0,0.010152821922817282,127.34684537789717,0)" xlink:href="#bc"/><use transform="matrix(0.010152821922817282,0,0,0.010152821922817282,139.73328812373424,0)" xlink:href="#bm"/><use transform="matrix(0.010152821922817282,0,0,0.010152821922817282,152.84058122609136,0)" xlink:href="#bh"/><use transform="matrix(0.010152821922817282,0,0,0.010152821922817282,165.7854291776834,0)" xlink:href="#bc"/><use transform="matrix(0.010152821922817282,0,0,0.010152821922817282,178.17187192352048,0)" xlink:href="#bg"/><use transform="matrix(0.010152821922817282,0,0,0.010152821922817282,189.8171586689919,0)" xlink:href="#be"/><use transform="matrix(0.010152821922817282,0,0,0.010152821922817282,197.43177511110486,0)" xlink:href="#bO"/><use transform="matrix(0.010152821922817282,0,0,0.010152821922817282,212.9554398310925,0)" xlink:href="#bh"/><use transform="matrix(0.010152821922817282,0,0,0.010152821922817282,225.90028778268453,0)" xlink:href="#be"/><use transform="matrix(0.010152821922817282,0,0,0.010152821922817282,233.3118477863412,0)" xlink:href="#br"/><use transform="matrix(0.010152821922817282,0,0,0.010152821922817282,246.06379212139967,0)" xlink:href="#bR"/><use transform="matrix(0.010152821922817282,0,0,0.010152821922817282,265.4353763501351,0)" xlink:href="#bc"/><use transform="matrix(0.010152821922817282,0,0,0.010152821922817282,277.82181909597216,0)" xlink:href="#bb"/><use transform="matrix(0.010152821922817282,0,0,0.010152821922817282,285.78163148346096,0)" xlink:href="#bj"/><use transform="matrix(0.010152821922817282,0,0,0.010152821922817282,298.9193830515865,0)" xlink:href="#bc"/><use transform="matrix(0.010152821922817282,0,0,0.010152821922817282,311.04185242743034,0)" xlink:href="#bn"/></g><g id="ae"><use transform="matrix(0.010152821922817282,0,0,0.010152821922817282,0,0)" xlink:href="#bO"/><use transform="matrix(0.010152821922817282,0,0,0.010152821922817282,15.523664719987623,0)" xlink:href="#bu"/><use transform="matrix(0.010152821922817282,0,0,0.010152821922817282,28.630957822344737,0)" xlink:href="#bu"/><use transform="matrix(0.010152821922817282,0,0,0.010152821922817282,41.738250924701845,0)" xlink:href="#bb"/><use transform="matrix(0.010152821922817282,0,0,0.010152821922817282,49.6980633121906,0)" xlink:href="#br"/><use transform="matrix(0.010152821922817282,0,0,0.010152821922817282,62.074353236104855,0)" xlink:href="#bF"/><use transform="matrix(0.010152821922817282,0,0,0.010152821922817282,74.16636414618024,0)" xlink:href="#bc"/></g><g id="af"><use transform="matrix(0.010152821922817282,0,0,0.010152821922817282,0,0)" xlink:href="#bV"/><use transform="matrix(0.010152821922817282,0,0,0.010152821922817282,13.472794691578533,0)" xlink:href="#bP"/></g><g id="ag"><use transform="matrix(0.010152821922817282,0,0,0.010152821922817282,0,0)" xlink:href="#ba"/><use transform="matrix(0.010152821922817282,0,0,0.010152821922817282,15.381525213068182,0)" xlink:href="#bq"/><use transform="matrix(0.010152821922817282,0,0,0.010152821922817282,28.326373164660218,0)" xlink:href="#bc"/><use transform="matrix(0.010152821922817282,0,0,0.010152821922817282,40.7128159104973,0)" xlink:href="#bz"/><use transform="matrix(0.010152821922817282,0,0,0.010152821922817282,52.94696632749211,0)" xlink:href="#bs"/><use transform="matrix(0.010152821922817282,0,0,0.010152821922817282,65.00851877179905,0)" xlink:href="#bg"/></g><g id="ah"><use transform="matrix(0.010152821922817282,0,0,0.010152821922817282,0,0)" xlink:href="#bg"/><use transform="matrix(0.010152821922817282,0,0,0.010152821922817282,11.645286745471422,0)" xlink:href="#bh"/><use transform="matrix(0.010152821922817282,0,0,0.010152821922817282,24.59013469706346,0)" xlink:href="#bz"/><use transform="matrix(0.010152821922817282,0,0,0.010152821922817282,36.82428511405828,0)" xlink:href="#bz"/><use transform="matrix(0.010152821922817282,0,0,0.010152821922817282,49.0584355310531,0)" xlink:href="#bc"/><use transform="matrix(0.010152821922817282,0,0,0.010152821922817282,61.44487827689018,0)" xlink:href="#bg"/><use transform="matrix(0.010152821922817282,0,0,0.010152821922817282,73.0901650223616,0)" xlink:href="#bg"/><use transform="matrix(0.010152821922817282,0,0,0.010152821922817282,84.73545176783304,0)" xlink:href="#bA"/><use transform="matrix(0.010152821922817282,0,0,0.010152821922817282,93.0100016349291,0)" xlink:href="#bh"/><use transform="matrix(0.010152821922817282,0,0,0.010152821922817282,105.95484958652115,0)" xlink:href="#bE"/></g><g id="ai"><use transform="matrix(0.010152821922817282,0,0,0.010152821922817282,0,0)" xlink:href="#bO"/><use transform="matrix(0.010152821922817282,0,0,0.010152821922817282,15.523664719987623,0)" xlink:href="#bh"/><use transform="matrix(0.010152821922817282,0,0,0.010152821922817282,28.46851267157966,0)" xlink:href="#be"/><use transform="matrix(0.010152821922817282,0,0,0.010152821922817282,35.88007267523628,0)" xlink:href="#br"/><use transform="matrix(0.010152821922817282,0,0,0.010152821922817282,48.63201701029479,0)" xlink:href="#bB"/><use transform="matrix(0.010152821922817282,0,0,0.010152821922817282,58.358420412353745,0)" xlink:href="#bG"/><use transform="matrix(0.010152821922817282,0,0,0.010152821922817282,77.33404458609925,0)" xlink:href="#bc"/><use transform="matrix(0.010152821922817282,0,0,0.010152821922817282,89.72048733193634,0)" xlink:href="#bb"/><use transform="matrix(0.010152821922817282,0,0,0.010152821922817282,97.6802997194251,0)" xlink:href="#bj"/><use transform="matrix(0.010152821922817282,0,0,0.010152821922817282,110.81805128755065,0)" xlink:href="#bc"/></g><g id="aj"><use transform="matrix(0.010152821922817282,0,0,0.010152821922817282,0,0)" xlink:href="#bG"/><use transform="matrix(0.010152821922817282,0,0,0.010152821922817282,18.9756241737455,0)" xlink:href="#bc"/><use transform="matrix(0.010152821922817282,0,0,0.010152821922817282,31.362066919582585,0)" xlink:href="#bb"/><use transform="matrix(0.010152821922817282,0,0,0.010152821922817282,39.321879307071335,0)" xlink:href="#bj"/><use transform="matrix(0.010152821922817282,0,0,0.010152821922817282,52.45963087519689,0)" xlink:href="#bc"/><use transform="matrix(0.010152821922817282,0,0,0.010152821922817282,64.84607362103398,0)" xlink:href="#bg"/></g><g id="ak"><use transform="matrix(0.010152821922817282,0,0,0.010152821922817282,0,0)" xlink:href="#bV"/><use transform="matrix(0.010152821922817282,0,0,0.010152821922817282,13.472794691578533,0)" xlink:href="#bP"/></g><g id="al"><use transform="matrix(0.0126953125,0,0,0.0126953125,0,0)" xlink:href="#bP"/><use transform="matrix(0.0126953125,0,0,0.0126953125,16.7578125,0)" xlink:href="#bc"/><use transform="matrix(0.0126953125,0,0,0.0126953125,32.24609375,0)" xlink:href="#bj"/><use transform="matrix(0.0126953125,0,0,0.0126953125,48.673828125,0)" xlink:href="#bk"/><use transform="matrix(0.0126953125,0,0,0.0126953125,55.7197265625,0)" xlink:href="#bg"/><use transform="matrix(0.0126953125,0,0,0.0126953125,70.28125,0)" xlink:href="#be"/><use transform="matrix(0.0126953125,0,0,0.0126953125,79.802734375,0)" xlink:href="#bb"/><use transform="matrix(0.0126953125,0,0,0.0126953125,90.796875,0)" xlink:href="#bl"/></g><path fill="#333" d="M135 0v-1490h591c327 0 492 160 492 383 0 177-115 286-268 320v15c168 8 326 140 326 361 0 236-176 411-512 411H135zm305-251h264c179 0 258-76 258-189 0-125-97-215-250-215H440v404zm0-613h241c131 0 228-74 228-194 0-109-79-183-222-183H440v377" id="bW"/><g id="am"><use transform="matrix(0.0126953125,0,0,0.0126953125,0,0)" xlink:href="#bW"/><use transform="matrix(0.0126953125,0,0,0.0126953125,17.2021484375,0)" xlink:href="#br"/><use transform="matrix(0.0126953125,0,0,0.0126953125,33.1474609375,0)" xlink:href="#be"/></g><path fill="#333" d="M1024-733v240H0v-240h1024" id="bX"/><use transform="matrix(0.0126953125,0,0,0.0126953125,0,0)" xlink:href="#bX" id="an"/><g id="ao"><use transform="matrix(0.0126953125,0,0,0.0126953125,0,0)" xlink:href="#bM"/><use transform="matrix(0.0126953125,0,0,0.0126953125,17.0244140625,0)" xlink:href="#bc"/><use transform="matrix(0.0126953125,0,0,0.0126953125,32.5126953125,0)" xlink:href="#bm"/><use transform="matrix(0.0126953125,0,0,0.0126953125,48.90234375,0)" xlink:href="#bh"/><use transform="matrix(0.0126953125,0,0,0.0126953125,65.0888671875,0)" xlink:href="#bc"/><use transform="matrix(0.0126953125,0,0,0.0126953125,80.5771484375,0)" xlink:href="#bv"/><use transform="matrix(0.0126953125,0,0,0.0126953125,96.763671875,0)" xlink:href="#bz"/><use transform="matrix(0.0126953125,0,0,0.0126953125,112.0615234375,0)" xlink:href="#bc"/></g><g id="ap"><use transform="matrix(0.0126953125,0,0,0.0126953125,0,0)" xlink:href="#bi"/><use transform="matrix(0.0126953125,0,0,0.0126953125,10.2705078125,0)" xlink:href="#bN"/><use transform="matrix(0.0126953125,0,0,0.0126953125,29.6943359375,0)" xlink:href="#bd"/><use transform="matrix(0.0126953125,0,0,0.0126953125,44.7890625,0)" xlink:href="#bu"/><use transform="matrix(0.0126953125,0,0,0.0126953125,61.1787109375,0)" xlink:href="#bu"/><use transform="matrix(0.0126953125,0,0,0.0126953125,77.0986328125,0)" xlink:href="#bl"/></g><g id="aq"><use transform="matrix(0.0126953125,0,0,0.0126953125,0,0)" xlink:href="#bV"/><use transform="matrix(0.0126953125,0,0,0.0126953125,16.5166015625,0)" xlink:href="#bd"/><use transform="matrix(0.0126953125,0,0,0.0126953125,31.611328125,0)" xlink:href="#be"/><use transform="matrix(0.0126953125,0,0,0.0126953125,41.1962890625,0)" xlink:href="#bq"/><use transform="matrix(0.0126953125,0,0,0.0126953125,57.3828125,0)" xlink:href="#bn"/></g></defs></g></svg>